<?xml version="1.0" standalone="no"?>
<!DOCTYPE svg PUBLIC "-//W3C//DTD SVG 1.1//EN" "http://www.w3.org/Graphics/SVG/1.1/DTD/svg11.dtd" >
<svg>
<metadata>
Created by FontForge 20090622 at Sat Oct 24 19:19:15 2015
 By deploy user
Typeface &#194;&#169; Jeff Bensch. 2015. All Rights Reserved
</metadata>
<defs>
<font id="NotSoStoutDeco" horiz-adv-x="1167" >
  <font-face 
    font-family="Not So Stout Deco"
    font-weight="400"
    font-stretch="normal"
    units-per-em="2048"
    panose-1="2 0 5 0 0 0 0 0 0 0"
    ascent="1638"
    descent="-410"
    x-height="1047"
    cap-height="1380"
    bbox="10 -792 2237 1985"
    underline-thickness="150"
    underline-position="-142"
    unicode-range="U+0020-U+F002"
  />
<missing-glyph horiz-adv-x="994" 
d="M80 60v1314h704v-1314h-704zM10 -10h844v1454h-844v-1454zM438 289q14 0 27 -7t20 -19.5t7 -27.5t-7 -27.5t-20 -19.5t-27 -7t-27 7t-20 20t-7 27t7.5 27t20 20t26.5 7zM387 543q0 172 129 312l44 61q24 44 24 86q0 45 -23 85t-63 61.5t-82 21.5t-82 -21.5t-64 -63.5v0
l-51 102q14 19 66 48q63 34 130 34q68 0 131 -34.5t99.5 -98.5t36.5 -134q0 -69 -35 -132q-7 -13 -43 -60v1q-118 -123 -118 -268h-99z" />
    <glyph glyph-name=".notdef" horiz-adv-x="994" 
d="M80 60v1314h704v-1314h-704zM10 -10h844v1454h-844v-1454zM438 289q14 0 27 -7t20 -19.5t7 -27.5t-7 -27.5t-20 -19.5t-27 -7t-27 7t-20 20t-7 27t7.5 27t20 20t26.5 7zM387 543q0 172 129 312l44 61q24 44 24 86q0 45 -23 85t-63 61.5t-82 21.5t-82 -21.5t-64 -63.5v0
l-51 102q14 19 66 48q63 34 130 34q68 0 131 -34.5t99.5 -98.5t36.5 -134q0 -69 -35 -132q-7 -13 -43 -60v1q-118 -123 -118 -268h-99z" />
    <glyph glyph-name=".null" horiz-adv-x="0" 
 />
    <glyph glyph-name="nonmarkingreturn" horiz-adv-x="0" 
 />
    <glyph glyph-name="space" unicode=" " horiz-adv-x="745" 
 />
    <glyph glyph-name="space" unicode="&#xa0;" horiz-adv-x="745" 
 />
    <glyph glyph-name="exclam" unicode="!" horiz-adv-x="309" 
d="M90 216q20 0 39 -10t29.5 -29t10.5 -41q0 -21 -10 -39.5t-29 -29t-40 -10.5t-40 10.5t-29.5 29.5t-10.5 39q0 21 11 40.5t29.5 29.5t39.5 10zM15 1646h146v-1034h-146v1034z" />
    <glyph glyph-name="quotedbl" unicode="&#x22;" horiz-adv-x="663" 
d="M189 1536q-8 -233 -171 -263v34q126 22 138 198q-10 -1 -20 -1q-47 0 -87 19q-18 10 -28.5 29t-10.5 39q0 21 11 40.5t29.5 29.5t39.5 10q20 0 39 -10t41 -39q19 -26 19 -73v-13zM520 1536q-8 -233 -171 -263v34q126 22 138 198q-10 -1 -20 -1q-47 0 -87 19
q-18 10 -28.5 29t-10.5 39q0 21 11 40.5t29.5 29.5t39.5 10q20 0 39 -10t41 -39q19 -26 19 -73v-13z" />
    <glyph glyph-name="numbersign" unicode="#" horiz-adv-x="1530" 
d="M704 119l94 290h-390l-112 -340v49h-117l95 291h-264l41 127h264l121 374h-263l41 127h264l92 286h134l-92 -286h390l92 282h134l-92 -282h254l-41 -127h-254l-122 -374h254l-41 -127h-254l-95 -290h-133zM570 910l-121 -374h391l121 374h-391z" />
    <glyph glyph-name="dollar" unicode="$" horiz-adv-x="878" 
d="M283 1397v249h146v-253q66 -22 90 -36q77 -42 98 -77l-78 -78q1 -16 1 -27q0 -32 -7 -32q-5 0 -12 14q-28 48 -74 73t-96 25q-49 0 -95.5 -25.5t-73 -72t-26.5 -108.5q0 -61 26 -107t72 -72t97 -26h6q93 -3 182 -51q92 -50 145.5 -144.5t53.5 -207.5q0 -111 -51.5 -204
t-143.5 -145q-36 -20 -114 -46v-252h-146v248q-89 26 -133 50q-83 46 -107 84l95 94q-12 39 -12 46q0 1 1 1t5 -7q32 -60 91.5 -92.5t122.5 -32.5q64 0 123 32.5t91.5 91.5t32.5 132q0 75 -33.5 134.5t-92.5 91t-121 31.5h-7q-81 3 -158 46q-81 45 -126 126t-45 180
t46 181.5t126 125.5q30 16 101 40z" />
    <glyph glyph-name="percent" unicode="%" horiz-adv-x="2050" 
d="M1210 1696v-50h137l-601 -1852h-153zM270.5 1291.5q-46.5 -25.5 -73 -72t-26.5 -98.5q0 -51 26 -97t72 -72t97 -26q52 0 98 26t72 72t26 97q0 52 -26.5 98.5t-73 72t-96.5 25.5q-49 0 -95.5 -25.5zM365 1478q92 0 176 -46t132.5 -131.5t48.5 -180.5q0 -92 -47 -176
t-131.5 -131.5t-178.5 -47.5q-92 0 -176 47.5t-131.5 131.5t-47.5 176q0 95 49 180.5t132.5 131.5t173.5 46zM1458.5 502.5q-46.5 -25.5 -73 -72t-26.5 -98.5q0 -51 26 -97t72 -72t97 -26q52 0 98 26t72 72t26 97q0 52 -26.5 98.5t-73 72t-96.5 25.5q-49 0 -95.5 -25.5z
M1553 689q92 0 176 -46t132.5 -131.5t48.5 -180.5q0 -92 -47 -176t-131.5 -131.5t-178.5 -47.5q-92 0 -176 47.5t-131.5 131.5t-47.5 176q0 95 49 180.5t132.5 131.5t173.5 46z" />
    <glyph glyph-name="ampersand" unicode="&#x26;" horiz-adv-x="1293" 
d="M303 1073q0 -86 107 -264q196 165 197 274q0 42 -21.5 77.5t-56.5 55t-74 19.5q-38 0 -74 -19.5t-57 -55.5t-21 -77v-10zM315 719q-148 245 -149 447h-1v-58q0 44 13 86q10 33 30 63q27 44 60 70q14 7 17 14q6 4 24 14q68 38 139 38q74 0 140.5 -36.5t105.5 -104.5
q39 -69 39 -144q0 -176 -281 -411q64 -82 96 -119q20 -26 103 -117q63 140 89 207l96 -30l-3 -6q-42 -111 -128 -258q182 -213 309 -213q66 0 70 3l69 -92q-35 -29 -118 -29q-145 0 -376 243q-170 -246 -334 -246q-82 2 -155 42q-74 40 -117 115.5t-43 156.5q0 82 42 157
q38 68 106 110zM567 383q-69 73 -107 118q-26 30 -84 107q-79 -55 -114 -75q-10 -7 -20 -13q-38 -23 -59 -61q-24 -42 -24 -88q0 -47 24 -90t68 -66q62 -30 118 -23q104 30 198 191z" />
    <glyph glyph-name="quotesingle" unicode="'" horiz-adv-x="332" 
d="M189 1536q-8 -233 -171 -263v34q126 22 138 198q-10 -1 -20 -1q-47 0 -87 19q-18 10 -28.5 29t-10.5 39q0 21 11 40.5t29.5 29.5t39.5 10q20 0 39 -10t41 -39q19 -26 19 -73v-13z" />
    <glyph glyph-name="parenleft" unicode="(" horiz-adv-x="562" 
d="M422 1646v-146q-266 0 -266 -780t266 -780v-146q-412 0 -412 926t412 926z" />
    <glyph glyph-name="parenright" unicode=")" horiz-adv-x="562" 
d="M422 720q0 -926 -412 -926v146q266 0 266 780t-266 780v146q412 0 412 -926z" />
    <glyph glyph-name="asterisk" unicode="*" horiz-adv-x="1112" 
d="M373 952l-363 118l45 138l363 -118v382h146v-382l363 118l45 -138l-363 -118l224 -309l-118 -86l-224 309l-225 -309l-118 86z" />
    <glyph glyph-name="plus" unicode="+" horiz-adv-x="827" 
d="M276 597h-266v146h266v266h146v-266h265v-146h-265v-265h-146v265z" />
    <glyph glyph-name="comma" unicode="," horiz-adv-x="332" 
d="M189 84q-8 -233 -171 -263v34q126 22 138 198q-10 -1 -20 -1q-47 0 -87 19q-18 10 -28.5 29t-10.5 39q0 21 11 40.5t29.5 29.5t39.5 10q20 0 39 -10t41 -39q19 -26 19 -73v-13z" />
    <glyph glyph-name="hyphen" unicode="-" horiz-adv-x="627" 
d="M10 743h477v-146h-477v146z" />
    <glyph glyph-name="hyphen" unicode="&#xad;" horiz-adv-x="627" 
d="M10 743h477v-146h-477v146z" />
    <glyph glyph-name="period" unicode="." horiz-adv-x="309" 
d="M90 216q20 0 39 -10t29.5 -29t10.5 -41q0 -21 -10 -39.5t-29 -29t-40 -10.5t-40 10.5t-29.5 29.5t-10.5 39q0 21 11 40.5t29.5 29.5t39.5 10z" />
    <glyph glyph-name="slash" unicode="/" horiz-adv-x="905" 
d="M627 1696v-50h138l-601 -1852h-154z" />
    <glyph glyph-name="zero" unicode="0" horiz-adv-x="934" 
d="M794 431q0 -101 -51.5 -194t-145 -145t-196.5 -52q-101 0 -194.5 52t-145 145t-51.5 194v576q0 103 53 197.5t146 145t192 50.5q100 0 193 -51t146.5 -145t53.5 -197v-576zM649 1007q0 65 -33.5 124.5t-92.5 91t-121 31.5t-121 -32t-92 -91t-33 -124v-576
q0 -63 32.5 -122t91.5 -91.5t122 -32.5q64 0 123 32.5t91.5 91.5t32.5 122v576z" />
    <glyph glyph-name="one" unicode="1" horiz-adv-x="296" 
d="M10 60v1320h146v-1320h-146z" />
    <glyph glyph-name="two" unicode="2" horiz-adv-x="923" 
d="M419 624l149 206l36 49q33 65 33 128q0 65 -33.5 124.5t-92 91t-121.5 31.5q-62 0 -121 -32t-73 -39l-95 96q19 28 96 70q94 51 192 51q100 0 193.5 -51t146.5 -145t53 -197q0 -102 -51 -195q-11 -19 -36 -52v-3l-398 -550h486v-146h-773z" />
    <glyph glyph-name="three" unicode="3" horiz-adv-x="845" 
d="M394.5 880q46.5 26 72.5 72t26 97q0 52 -27 98.5t-73 72t-95 25.5q-51 0 -97 -25t-74 -73l-95 123q21 35 97 77q82 44 169 44q86 0 167.5 -44t127.5 -126t46 -171t-46 -171q-15 -27 -72 -96q96 -83 130 -144q54 -95 54 -198q0 -101 -52 -194t-145 -145t-196 -52
q-102 0 -196 52q-82 46 -106 84l91 91q37 -32 92.5 -57t119.5 -25t123 32.5t91.5 91.5t32.5 122q0 65 -33 123t-90 95t-116 49v146q27 0 73.5 26z" />
    <glyph glyph-name="four" unicode="4" horiz-adv-x="978" 
d="M702 578h136v-146h-136v-372h-146v372h-495v1h-51l180 682h152l-142 -537h356v802h146v-802z" />
    <glyph glyph-name="five" unicode="5" horiz-adv-x="846" 
d="M607 1380v-146h-371l-69 -421q114 19 146 19q100 0 193 -51t146.5 -145t53.5 -197q0 -101 -51.5 -194t-145 -145t-196.5 -52q-101 0 -195 52q-83 47 -106 84l88 134q32 -60 91 -92.5t123 -32.5t123 32.5t91.5 91.5t32.5 122q0 65 -33.5 124.5t-92.5 91t-121 31.5
t-121 -32t-73 -39l-110 124l101 633z" />
    <glyph glyph-name="six" unicode="6" horiz-adv-x="934" 
d="M281 653q-59 -32 -92 -91t-33 -124q0 -63 32.5 -122t91.5 -91.5t122 -32.5q64 0 123 32.5t91.5 91.5t32.5 122q0 65 -33.5 124.5t-92.5 91t-121 31.5t-121 -32zM247 810q123 21 154 21q99 0 192.5 -51t147 -145t53.5 -197q0 -101 -51.5 -194t-145.5 -145t-196 -52
q-101 0 -194.5 52t-145 145t-51.5 194q0 63 21 126l218 820l142 -37z" />
    <glyph glyph-name="seven" unicode="7" horiz-adv-x="916" 
d="M639 1380v1h137l-428 -1321h-154l380 1174h-564v146h629z" />
    <glyph glyph-name="eight" unicode="8" horiz-adv-x="934" 
d="M281 646q-59 -32 -92 -91t-33 -123t32.5 -122t91 -91t122.5 -33t122.5 33t91 91t32.5 122t-33.5 123t-92 91t-120.5 32t-121 -32zM300.5 1229.5q-46.5 -25.5 -73 -72t-26.5 -98.5t26 -98t72.5 -72t97.5 -26t97.5 26t72.5 72t26 98t-26.5 99t-73.5 72t-96 25
q-50 0 -96.5 -25.5zM197 773q-74 77 -96 115q-45 82 -45 171t46 171t127 126t168 44q86 0 167 -44t127.5 -126t46.5 -171t-45 -171q-21 -36 -92 -112q104 -84 140 -147q53 -95 53 -198q0 -101 -51.5 -194t-145 -145t-196.5 -52q-101 0 -194.5 52t-145 145t-51.5 194
q0 103 53 199q34 60 134 143z" />
    <glyph glyph-name="nine" unicode="9" horiz-adv-x="934" 
d="M523 802q59 32 92 91t33 124q0 64 -32.5 122t-91 91t-122.5 33q-65 0 -123.5 -33t-91 -91t-32.5 -122q0 -65 33.5 -124.5t92.5 -91t121 -31.5t121 32zM557 645q-123 -21 -154 -21q-100 0 -193 50.5t-146.5 145t-53.5 196.5t51.5 195t145 145t196.5 52q101 0 194.5 -52
t145 -145t51.5 -195q0 -53 -14 -103l-224 -839l-142 37z" />
    <glyph glyph-name="colon" unicode=":" horiz-adv-x="309" 
d="M90 216q20 0 39 -10t29.5 -29t10.5 -41q0 -21 -10 -39.5t-29 -29t-40 -10.5t-40 10.5t-29.5 29.5t-10.5 39q0 21 11 40.5t29.5 29.5t39.5 10zM90 913q20 0 39 -10t29.5 -29t10.5 -41q0 -21 -10 -39.5t-29 -29t-40 -10.5t-40 10.5t-29.5 29.5t-10.5 39q0 21 11 40.5
t29.5 29.5t39.5 10z" />
    <glyph glyph-name="semicolon" unicode=";" horiz-adv-x="332" 
d="M90 1193q20 0 39 -10t29.5 -29t10.5 -41q0 -21 -10 -39.5t-29 -29t-40 -10.5t-40 10.5t-29.5 29.5t-10.5 39q0 21 11 40.5t29.5 29.5t39.5 10zM189 371q-8 -233 -171 -263v34q126 22 138 198q-10 -1 -20 -1q-47 0 -87 19q-18 10 -28.5 29t-10.5 39q0 21 11 40.5
t29.5 29.5t39.5 10q20 0 39 -10t41 -39q19 -26 19 -73v-13z" />
    <glyph glyph-name="semicolon" unicode="&#x37e;" horiz-adv-x="332" 
d="M90 1193q20 0 39 -10t29.5 -29t10.5 -41q0 -21 -10 -39.5t-29 -29t-40 -10.5t-40 10.5t-29.5 29.5t-10.5 39q0 21 11 40.5t29.5 29.5t39.5 10zM189 371q-8 -233 -171 -263v34q126 22 138 198q-10 -1 -20 -1q-47 0 -87 19q-18 10 -28.5 29t-10.5 39q0 21 11 40.5
t29.5 29.5t39.5 10q20 0 39 -10t41 -39q19 -26 19 -73v-13z" />
    <glyph glyph-name="less" unicode="&#x3c;" horiz-adv-x="877" 
d="M259 612l478 -351l-1 -179l-726 526l6 4l-6 4l726 527l1 -180z" />
    <glyph glyph-name="equal" unicode="=" horiz-adv-x="627" 
d="M10 476h477v-146h-477v146zM10 1000h477v-146h-477v146z" />
    <glyph glyph-name="greater" unicode="&#x3e;" horiz-adv-x="877" 
d="M10 963l1 180l726 -527l-6 -4l6 -4l-726 -526l-1 179l478 351z" />
    <glyph glyph-name="question" unicode="?" horiz-adv-x="832" 
d="M333 216q20 0 39 -10t29.5 -29t10.5 -41q0 -21 -10 -39.5t-29.5 -29t-39.5 -10.5q-21 0 -40 10.5t-29.5 29.5t-10.5 39q0 21 11 40.5t29.5 29.5t39.5 10zM258 590q0 253 189 460l66 89q34 65 34 128q0 65 -33.5 124.5t-92.5 91t-121 31.5t-121 -32t-94 -94v1l-75 150
q20 28 97 70q93 51 192 51q100 0 193 -51t146.5 -145t53.5 -197q0 -102 -52 -195q-10 -19 -63 -89v2q-173 -181 -173 -395h-146z" />
    <glyph glyph-name="at" unicode="@" horiz-adv-x="2211" 
d="M1041 954q-62 0 -121 -31.5t-92.5 -91t-33.5 -124.5q0 -63 32.5 -122t91.5 -91.5t123 -32.5q63 0 122 32.5t91.5 91.5t32.5 122q0 65 -33 124t-92 91t-121 32zM1923 718q0 233 -119 446t-330 326.5t-434 113.5q-224 0 -435 -114t-329 -326.5t-118 -445.5
q0 -228 115.5 -437.5t327.5 -326.5q207 -117 374 -118v-146q-205 1 -450 136q-245 136 -380 380t-135 513q0 270 138 517.5t384.5 380.5t507.5 133q259 0 505.5 -133t386 -380.5t138.5 -549.5q0 -101 -51.5 -194t-145 -145t-194.5 -52q-103 0 -197 52q-46 26 -121 101
q-78 -75 -123 -101q-95 -52 -196 -52q-103 0 -196.5 52t-145 145t-51.5 194q0 103 53.5 197t146.5 145t193 51q82 0 245 -72v59h146v-388q6 -52 31 -93q31 -60 90.5 -92.5t123.5 -32.5q63 0 122 32.5t93 92.5q27 52 30 132z" />
    <glyph glyph-name="A" unicode="A" horiz-adv-x="1200" 
d="M536 1206l-204 -628h406zM285 432l-121 -372h-154l444 1321h161l445 -1321h-154l-121 372h-500z" />
    <glyph glyph-name="B" unicode="B" horiz-adv-x="1048" 
d="M156 1234v-390h309q51 0 97.5 25.5t72.5 71.5t26 97q0 52 -26.5 98.5t-73 72t-96.5 25.5h-309zM156 698v-492h360q64 0 123 32t91.5 91t32.5 122q0 65 -33.5 124.5t-92.5 91t-121 31.5h-360zM465 1380q86 0 167 -44t127.5 -126t46.5 -171t-45 -171q-8 -13 -50 -71
q105 -80 144 -148q53 -95 53 -198q0 -101 -51.5 -194t-145 -145t-196.5 -52h-505v1320h455z" />
    <glyph glyph-name="C" unicode="C" horiz-adv-x="1260" 
d="M10 727q2 173 91 333q90 160 251 247t331 87t333 -87q82 -45 104 -67l-107 -107q-9 9 -74 44q-124 66 -256 66q-131 0 -256 -67t-195 -194q-71 -125 -71 -262t71 -261q70 -127 195 -194.5t256 -67.5q132 0 256 67q65 34 74 43l107 -107q-22 -22 -104 -66
q-163 -88 -333 -88t-331 86.5t-251 248.5q-89 159 -91 331v15z" />
    <glyph glyph-name="D" unicode="D" horiz-adv-x="1126" 
d="M325 1380q167 0 324.5 -85.5t247 -244t89.5 -331.5q0 -171 -87 -328t-244.5 -244t-329.5 -87h-315v1320h315zM325 206q135 0 257 68t190 190t68 255q0 135 -69.5 259t-192.5 190t-253 66h-169v-1028h169z" />
    <glyph glyph-name="E" unicode="E" horiz-adv-x="935" 
d="M156 206h639v-146h-785v1320h765v-146h-619v-495h373v-146h-373v-387z" />
    <glyph glyph-name="F" unicode="F" horiz-adv-x="915" 
d="M775 1380v-146h-619v-495h373v-146h-373v-533h-146v1320h765z" />
    <glyph glyph-name="G" unicode="G" horiz-adv-x="1356" 
d="M1070 593h-522v146h668v-679h-146v100q-234 -114 -387 -114q-170 0 -331 86.5t-251 248.5q-89 159 -91 331v15q2 173 91 333q90 160 251 247t331 87t333 -87q82 -45 104 -67l-107 -107q-9 9 -74 44q-124 66 -256 66q-131 0 -256 -67t-195 -194q-71 -125 -71 -262t71 -261
q70 -127 195 -194.5t256 -67.5q132 0 256 67q63 33 131 100v229z" />
    <glyph glyph-name="H" unicode="H" horiz-adv-x="1036" 
d="M156 593v-533h-146v1320h146v-641h594v641h146v-1320h-146v533h-594z" />
    <glyph glyph-name="I" unicode="I" horiz-adv-x="296" 
d="M10 60v1320h146v-1320h-146z" />
    <glyph glyph-name="J" unicode="J" horiz-adv-x="934" 
d="M10 473h146v-30q0 -56 32.5 -114t91.5 -90.5t122 -32.5t122 32.5t91.5 90.5t32.5 119v932h146v-942q0 -101 -51.5 -194t-145 -145t-196.5 -52q-101 0 -194.5 52t-145 145t-51.5 194v35z" />
    <glyph glyph-name="K" unicode="K" horiz-adv-x="969" 
d="M156 60h-146v1320h146v-891l367 649l137 242h169l-103 -182l-271 -478l374 -660h-168l-290 512l-214 -376z" />
    <glyph glyph-name="L" unicode="L" horiz-adv-x="935" 
d="M10 1380h146v-1174h639v-146h-785v1320z" />
    <glyph glyph-name="M" unicode="M" horiz-adv-x="1277" 
d="M991 1362v18h146v-1320h-146v992l-418 -939l-417 936v-989h-146v1320h146v-24l29 10l388 -914l389 917z" />
    <glyph glyph-name="N" unicode="N" horiz-adv-x="1064" 
d="M156 1119v-1059h-146v1320h146l622 -1046v1046h146v-1320h-146z" />
    <glyph glyph-name="O" unicode="O" horiz-adv-x="1499" 
d="M684 1394q170 0 331 -87t252.5 -249t91.5 -339q0 -175 -89 -335t-250 -249t-336 -89t-336 89t-249.5 249t-88.5 335q0 177 90.5 339t251.5 249t332 87zM427 1176q-125 -67 -195 -193t-70 -264q0 -135 68.5 -259t193 -193.5t260.5 -69.5q137 0 261 69.5t193 193t69 259.5
q0 138 -70.5 264t-195.5 193t-257 67t-257 -67z" />
    <glyph glyph-name="P" unicode="P" horiz-adv-x="1044" 
d="M156 1234v-492h356q64 0 123 32t91.5 91t32.5 122q0 65 -33.5 124.5t-92.5 91t-121 31.5h-356zM156 596v-536h-146v1320h501q100 0 193 -51t146.5 -145t53.5 -197q0 -101 -51.5 -194t-145 -145t-196.5 -52h-355z" />
    <glyph glyph-name="Q" unicode="Q" horiz-adv-x="1520" 
d="M1132 437q75 178 75 282q0 138 -70.5 264t-195.5 193t-257 67t-257 -67t-195 -193t-70 -264q0 -135 68.5 -259t193 -193.5t260.5 -69.5q137 0 259 69q17 8 92 61l-238 238l103 103zM1142 219q-79 -60 -121 -84q-162 -89 -337 -89t-336 89t-249.5 249t-88.5 335
q0 177 90.5 339t251.5 249t332 87q170 0 331 -87t252.5 -249t91.5 -339q0 -175 -89 -336q-5 -8 -29 -56l139 -139l-103 -103z" />
    <glyph glyph-name="R" unicode="R" horiz-adv-x="1044" 
d="M156 1234v-492h356q64 0 123 32t91.5 91t32.5 122q0 65 -33.5 124.5t-92.5 91t-121 31.5h-356zM561 591l301 -531h-168l-238 420l-66 116h-234v-536h-146v1320h501q100 0 193 -51t146.5 -145t53.5 -197q0 -101 -51.5 -194t-143.5 -144q-39 -22 -148 -58z" />
    <glyph glyph-name="S" unicode="S" horiz-adv-x="1034" 
d="M401 680q-92 0 -178 47.5t-133 132.5t-47 178q0 94 48.5 180.5t133.5 132.5q84 46 173 47h105q90 0 176 -47q84 -45 133 -131q47 -85 48 -116h-148v-1q-2 0 -26 42q-30 52 -80.5 79t-102.5 27h-101q-54 0 -104.5 -27.5t-79 -78t-28.5 -106.5t28 -106t78 -78t106 -28h99
q100 0 193 -51t146.5 -145t53.5 -197q0 -101 -51.5 -194t-143.5 -145q-95 -52 -197 -52h-101q-101 0 -194.5 52t-145 145t-51.5 134h146q0 -3 33 -60q32 -59 90.5 -92t122.5 -33h100q64 0 122.5 33t91 91t32.5 122t-33.5 123t-92.5 92q-56 30 -118 30h-103z" />
    <glyph glyph-name="T" unicode="T" horiz-adv-x="935" 
d="M795 1380v-146h-320v-1174h-146v1174h-319v146h785z" />
    <glyph glyph-name="U" unicode="U" horiz-adv-x="1047" 
d="M403 60q-103 0 -196.5 52t-145 145t-51.5 194v929h145v-929q0 -63 32.5 -122t91.5 -91t123 -32h113q64 0 123 32t91.5 91t32.5 122v929h145v-929q0 -101 -51.5 -194t-145 -145t-196.5 -52h-111z" />
    <glyph glyph-name="V" unicode="V" horiz-adv-x="1200" 
d="M1060 1381l-428 -1321h-193l-429 1321h154l372 -1146l370 1146h154z" />
    <glyph glyph-name="W" unicode="W" horiz-adv-x="1572" 
d="M1019 323l263 1057h150l-341 -1320h-155l-215 813l-215 -813h-155l-341 1320h150l264 -1057l297 1001z" />
    <glyph glyph-name="X" unicode="X" horiz-adv-x="1066" 
d="M552 720l374 -660h-168l-290 512l-290 -512h-168l374 660l-374 660h169l289 -511l289 511h169z" />
    <glyph glyph-name="Y" unicode="Y" horiz-adv-x="1066" 
d="M541 701v-641h-146v641l-28 49l-357 630h169l289 -511l289 511h169l-357 -630z" />
    <glyph glyph-name="Z" unicode="Z" horiz-adv-x="904" 
d="M246 206h518v-146h-754l509 1174h-492v146h723z" />
    <glyph glyph-name="bracketleft" unicode="[" horiz-adv-x="562" 
d="M10 1646h412v-146h-266v-1560h266v-146h-412v1852z" />
    <glyph glyph-name="backslash" unicode="\" horiz-adv-x="905" 
d="M765 -206h-154l-601 1852h137v50z" />
    <glyph glyph-name="bracketright" unicode="]" horiz-adv-x="562" 
d="M276 1500h-266v146h412v-1852h-412v146h266v1560z" />
    <glyph glyph-name="asciicircum" unicode="^" horiz-adv-x="1210" 
d="M189 993l-179 1l527 726l4 -6l4 6l525 -726l-178 -1l-351 478z" />
    <glyph glyph-name="underscore" unicode="_" horiz-adv-x="1096" 
d="M10 -206v146h946v-146h-946z" />
    <glyph glyph-name="grave" unicode="`" horiz-adv-x="456" 
d="M13 1269q-3 9 -3 16q0 9 4 20q8 24 22 37q15 14 37 20q9 2 18 2q12 0 23 -3q20 -7 35 -23q25 -25 167 -190l-264 80q-33 17 -39 41z" />
    <glyph glyph-name="a" unicode="a" 
d="M360 867q-87 -46 -135.5 -133.5t-48.5 -183.5q0 -93 47.5 -179t134 -134.5t180.5 -48.5q95 0 181 48.5t134 134t48 179.5q0 96 -49 183.5t-135.5 133.5t-178.5 46q-91 0 -178 -46zM1027 60h-146v118l-108 -65q-122 -67 -255 -67t-254 67t-187.5 187.5t-66.5 252.5
q0 134 68 256t189.5 187.5t250.5 65.5q128 0 250 -65q11 -7 113 -66v117h146v-988z" />
    <glyph glyph-name="b" unicode="b" 
d="M320 867q-87 -46 -135.5 -133.5t-48.5 -183.5q0 -93 47.5 -179t134 -134.5t180.5 -48.5q95 0 181 48.5t134 134t48 179.5q0 96 -49 183.5t-135.5 133.5t-178.5 46q-91 0 -178 -46zM156 927q101 64 111 69q122 66 251 66q128 0 249.5 -65.5t190.5 -187.5t69 -256
q0 -131 -67 -252t-188 -188t-254 -67q-132 0 -255 68q-8 4 -107 70v-124h-146v1320h146v-453z" />
    <glyph glyph-name="c" unicode="c" horiz-adv-x="979" 
d="M732 251l102 -102q-3 -3 -61 -36q-122 -67 -255 -67t-254 67t-187.5 187.5t-66.5 252.5q0 134 68.5 256t189.5 187.5t250 65.5q128 0 251 -66q63 -34 70 -41l-105 -104l-39 17q-85 45 -177 45q-91 0 -178 -46t-135.5 -133.5t-48.5 -183.5q0 -93 47.5 -179t134 -134.5
t180.5 -48.5q95 0 180 49z" />
    <glyph glyph-name="d" unicode="d" 
d="M360 867q-87 -46 -135.5 -133.5t-48.5 -183.5q0 -93 47.5 -179t134 -134.5t180.5 -48.5q95 0 181 48.5t134 134t48 179.5q0 96 -49 183.5t-135.5 133.5t-178.5 46q-91 0 -178 -46zM1027 60h-146v118l-108 -65q-122 -67 -255 -67t-254 67t-187.5 187.5t-66.5 252.5
q0 134 68 256t189.5 187.5t250.5 65.5q128 0 250 -65q11 -7 113 -66v449h146v-1320z" />
    <glyph glyph-name="e" unicode="e" horiz-adv-x="1139" 
d="M251 289q169 -101 266 -101h4q100 1 180 48q83 48 133 133l21 30l140 -38q-1 -4 -35 -61q-72 -120 -188 -186q-115 -66 -253 -69h-11q-131 0 -244 68q-120 71 -185 186q-67 116 -69 256v7q0 135 70 248q73 119 184 183q111 65 250 69h13q65 0 126 -17q63 -18 121 -51
q111 -64 184 -182q38 -61 41 -73zM174 410l637 369q-88 72 -111 86q-69 39 -98 42v7h-86q-97 -4 -177 -50q-79 -46 -130 -127q-51 -82 -51 -178v-7q0 -27 16 -142z" />
    <glyph glyph-name="f" unicode="f" horiz-adv-x="964" 
d="M114 819h-104v146h104v150q0 112 57.5 215t159.5 158t210 55t211 -55q63 -35 72 -45l-102 -102l-43 19q-67 35 -138 35t-138 -36.5t-105 -104t-38 -141.5v-148h331v-146h-331v-759h-146v759z" />
    <glyph glyph-name="g" unicode="g" 
d="M538 913q-91 0 -177.5 -46t-135.5 -133.5t-49 -183.5q0 -94 48 -179.5t133.5 -134t180.5 -48.5t181 48.5t133.5 134.5t47.5 179q0 96 -48.5 183.5t-135 133.5t-178.5 46zM1027 -25q0 -130 -66.5 -250.5t-187.5 -187.5t-254 -67q-132 0 -254 67q-59 33 -62 36l136 88
q85 -49 180 -49q94 0 180.5 48.5t134 134.5t47.5 180v209q-99 -66 -107 -70q-123 -68 -255 -68q-133 0 -254 67t-188 188t-67 252q0 134 69 256t190.5 187.5t249.5 65.5q129 0 251 -66q9 -5 111 -69v121h146v-1073z" />
    <glyph glyph-name="h" unicode="h" horiz-adv-x="1005" 
d="M156 633v-573h-146v1320h146v-407q182 89 281 89q108 0 210 -55t160 -156q53 -96 58 -197v-594h-146v572q0 74 -38 142t-105.5 104t-138.5 36t-138 -36t-105 -104q-38 -67 -38 -141z" />
    <glyph glyph-name="i" unicode="i" horiz-adv-x="403" 
d="M199 1533q30 -16 47 -47t17 -64t-16.5 -63t-46.5 -46.5t-63 -16.5q-34 0 -64 16.5t-46.5 46.5t-16.5 63t17.5 63.5t47.5 47t62 16.5t62 -16zM66 60v988h146v-988h-146z" />
    <glyph glyph-name="j" unicode="j" horiz-adv-x="1025" 
d="M821 1533q30 -16 47 -47t17 -64t-16.5 -63t-47 -46.5t-62.5 -16.5q-34 0 -64 16.5t-46.5 46.5t-16.5 63t17 63.5t47.5 47t62.5 16.5t62 -16zM834 -23q0 -132 -66.5 -252.5t-188 -187.5t-253.5 -67q-133 0 -254 67q-59 33 -62 36l102 102l34 -14q85 -49 180 -49
q93 0 180 48.5t134.5 134.5t47.5 179v1074h146v-1071z" />
    <glyph glyph-name="k" unicode="k" horiz-adv-x="935" 
d="M479 605l316 -545h-168l-233 402l-238 -397v-5h-146v1320h146v-1037l422 704h167z" />
    <glyph glyph-name="l" unicode="l" horiz-adv-x="296" 
d="M10 60v1320h146v-1320h-146z" />
    <glyph glyph-name="m" unicode="m" horiz-adv-x="1714" 
d="M156 633v-573h-146v988h146v-75q182 89 281 89q108 0 211 -55q57 -31 144 -122q86 91 144 122q102 55 210 55t210 -55t160 -156q53 -96 58 -197v-594h-146v572q0 74 -38 142t-105.5 104t-138.5 36t-138 -36.5t-105 -104t-38 -141.5v-572h-146v572q0 74 -38 142
t-105.5 104t-138.5 36t-138 -36t-105 -104q-38 -67 -38 -141z" />
    <glyph glyph-name="n" unicode="n" horiz-adv-x="1005" 
d="M156 633v-573h-146v988h146v-75q182 89 281 89q108 0 210 -55t160 -156q53 -96 58 -197v-594h-146v572q0 74 -38 142t-105.5 104t-138.5 36t-138 -36t-105 -104q-38 -67 -38 -141z" />
    <glyph glyph-name="o" unicode="o" 
d="M518 1062q128 0 249.5 -65.5t190.5 -187.5t69 -256q0 -131 -67 -252t-188 -188t-254 -67t-254 67t-187.5 187.5t-66.5 252.5q0 134 68 256t189.5 187.5t250.5 65.5zM340 867q-87 -46 -135.5 -133.5t-48.5 -183.5q0 -93 47.5 -179t134 -134.5t180.5 -48.5q95 0 181 48.5
t134 134t48 179.5q0 96 -49 183.5t-135.5 133.5t-178.5 46q-91 0 -178 -46z" />
    <glyph glyph-name="p" unicode="p" 
d="M320 867q-87 -46 -135.5 -133.5t-48.5 -183.5q0 -93 47.5 -179t134 -134.5t180.5 -48.5q95 0 181 48.5t134 134t48 179.5q0 96 -49 183.5t-135.5 133.5t-178.5 46q-91 0 -178 -46zM156 927q101 64 111 69q122 66 251 66q128 0 249.5 -65.5t190.5 -187.5t69 -256
q0 -131 -67 -252t-188 -188t-254 -67q-132 0 -255 68q-8 4 -107 70v-456h-146v1320h146v-121z" />
    <glyph glyph-name="q" unicode="q" 
d="M528 913q-91 0 -177.5 -46t-135.5 -133.5t-49 -183.5q0 -94 48 -179.5t133.5 -134t180.5 -48.5t181 48.5t133.5 134.5t47.5 179q0 96 -48.5 183.5t-135 133.5t-178.5 46zM881 184q-99 -66 -107 -70q-123 -68 -255 -68q-133 0 -254 67t-188 188t-67 252q0 134 69 256
t190.5 187.5t249.5 65.5q129 0 251 -66q9 -5 111 -69v121h146v-1320h-146v456z" />
    <glyph glyph-name="r" unicode="r" horiz-adv-x="979" 
d="M156 927q101 64 111 69q122 66 251 66q128 0 251 -66q63 -34 70 -41l-104 -104l-40 17q-85 45 -177 45q-91 0 -178 -46t-135 -135q-49 -85 -49 -181v-491h-146v988h146v-121z" />
    <glyph glyph-name="s" unicode="s" horiz-adv-x="999" 
d="M544 182q46 0 87.5 23.5t64.5 65.5t23 86q0 47 -23.5 88.5t-65.5 64.5t-86 23h-242q-67 0 -129 35t-97 97t-35 129q0 70 36 133t97.5 97t127.5 34h206q66 -1 128 -35q61 -33 97 -96q35 -62 35 -71h-138l-16 1q-18 30 -47 46q-13 7 -27 11q-17 4 -31 4h-206
q-31 0 -60.5 -15.5t-46 -45t-16.5 -62.5q0 -32 16.5 -61.5t46 -45t60.5 -15.5h247q77 0 150 -40q73 -41 116 -116.5t43 -159.5q0 -82 -41.5 -156.5t-116.5 -116.5t-158 -42h-221q-79 0 -153 42q-75 42 -117 116.5t-42 156.5h140q0 -44 23 -86t66 -65q38 -22 82 -24h223z" />
    <glyph glyph-name="t" unicode="t" horiz-adv-x="964" 
d="M114 901h-104v146h104v334h146v-334h331v-146h-331v-411q0 -74 38 -141.5t105 -104t138 -36.5t138 36l43 18l102 -102q-9 -10 -72 -44q-103 -56 -211 -56t-210 55t-159.5 158t-57.5 215v413z" />
    <glyph glyph-name="u" unicode="u" horiz-adv-x="1005" 
d="M719 474v573h146v-988h-146v75q-182 -89 -281 -89q-108 0 -210 55t-160 157q-53 95 -58 196v594h146v-572q0 -74 38 -142t105.5 -104t138.5 -36t138 36.5t105 104.5q38 66 38 140z" />
    <glyph glyph-name="v" unicode="v" horiz-adv-x="985" 
d="M524 60h-193l-38 115l-283 873h154l63 -196l200 -617l201 617l63 196h154l-284 -873z" />
    <glyph glyph-name="w" unicode="w" horiz-adv-x="1596" 
d="M734 703l-173 -528l-37 -115h-193l-38 115l-283 873h154l63 -196l200 -617l201 617l63 196h84l63 -196l200 -617l201 617l63 196h154l-284 -873l-37 -115h-193l-37 115z" />
    <glyph glyph-name="x" unicode="x" horiz-adv-x="891" 
d="M465 554l286 -494h-168l-202 349l-203 -349h-168l286 494l-286 494h168l203 -349l202 349h168z" />
    <glyph glyph-name="y" unicode="y" horiz-adv-x="1005" 
d="M865 29q-3 -187 -68 -305q-66 -120 -187 -187t-254 -67q-132 0 -254 67q-59 33 -62 36l136 88q85 -49 180 -49q94 0 180.5 48.5t134 134.5t47.5 119h1v220q-182 -89 -281 -89q-108 0 -210 55t-160 157q-53 95 -58 196v594h146v-572q0 -74 38 -142t105.5 -104t138.5 -36
t138 36.5t105 104.5q38 66 38 140v573h146v-1018z" />
    <glyph glyph-name="z" unicode="z" horiz-adv-x="955" 
d="M515 901h-494v146h749l-505 -842h550v-146h-805l10 15z" />
    <glyph glyph-name="braceleft" unicode="{" horiz-adv-x="760" 
d="M10 794q160 0 231 349q91 503 379 503v-146q-169 0 -236 -374q-1 -3 -3 -13q0 -1 1 2q-50 -238 -196 -395q150 -160 198 -408q68 -372 236 -372v-146q-267 0 -375 490q-61 363 -235 363v147z" />
    <glyph glyph-name="bar" unicode="|" horiz-adv-x="296" 
d="M10 1646h146v-1852h-146v1852z" />
    <glyph glyph-name="braceright" unicode="}" horiz-adv-x="760" 
d="M620 647q-174 0 -233 -363q-110 -490 -377 -490v146q168 0 236 372q48 248 198 408q-146 157 -196 395l1 -2q-2 10 -3 13q-67 374 -236 374v146q288 0 379 -503q71 -349 231 -349v-147z" />
    <glyph glyph-name="asciitilde" unicode="~" horiz-adv-x="1319" 
d="M590 1040q-151 54 -253 54q-162 0 -201 -68l-126 73q82 141 312 141q136 0 313 -64q125 -42 218 -42q161 0 200 68l126 -73q-81 -141 -311 -141q-121 0 -278 52z" />
    <glyph glyph-name="exclamdown" unicode="&#xa1;" horiz-adv-x="309" 
d="M89 652q-20 0 -39 10t-29.5 29t-10.5 41q0 21 10 39.5t29 29t40 10.5t40 -10.5t29.5 -29.5t10.5 -39q0 -21 -11 -40.5t-29.5 -29.5t-39.5 -10zM164 -778h-146v1034h146v-1034z" />
    <glyph glyph-name="cent" unicode="&#xa2;" horiz-adv-x="1135" 
d="M309 124q-151 99 -218 220q-79 142 -81 295v14q2 154 81 297q80 142 223.5 219.5t295.5 77.5h64l145 449v-50h137l-141 -434q71 -31 92 -42q73 -40 88 -55l-89 -89q-4 5 -76 44q1 0 1 1q0 7 -45 52l-304 -941q99 -12 128 -12q120 0 233 61q59 31 64 36l88 -88
q-15 -15 -88 -54q-146 -79 -297 -79q-57 0 -166 21l-89 -273h-153zM636 1132q-179 -27 -258 -69q-116 -63 -179 -178q-65 -113 -65 -238t65 -238q32 -58 146 -173z" />
    <glyph glyph-name="yen" unicode="&#xa5;" horiz-adv-x="1066" 
d="M541 186v-126h-146v126h-172v146h172v378h-172v146h84l-297 524h169l289 -511l289 511h169l-297 -524h71v-146h-159v-378h159v-146h-159z" />
    <glyph glyph-name="section" unicode="&#xa7;" horiz-adv-x="1034" 
d="M894 534q0 -102 -51 -195q-27 -47 -105 -124q59 -68 75 -98q48 -86 48 -179q0 -94 -48.5 -180.5t-133.5 -132.5q-84 -46 -173 -47h-105q-90 0 -176 47q-84 45 -133 131q-47 85 -48 116h148v1q2 0 26 -42q30 -52 80.5 -79t102.5 -27h101q54 0 104.5 27.5t79 78t28.5 106.5
t-28 106t-78 78q-28 16 -65 23q-24 -1 -41 -1h-101q-101 0 -194.5 52t-145 145t-51.5 194v8q0 101 53 195q25 47 103 124q-58 67 -75 99q-48 86 -48 178q0 94 48.5 180.5t133.5 132.5q84 46 173 47h105q90 0 176 -47q84 -45 133 -131q47 -85 48 -116h-148v-1q-2 0 -26 42
q-30 52 -80.5 79t-102.5 27h-101q-54 0 -104.5 -27.5t-79 -78t-28.5 -106.5t28 -106t78 -78q28 -16 65 -23q24 1 41 1h101q101 0 194.5 -52t145 -145t51.5 -194v-8zM548 293q44 10 76 29q59 33 91.5 91t32.5 122t-33.5 123t-92.5 92q-56 30 -118 30h-103q-18 0 -45 3
q-44 -11 -76 -29q-59 -33 -91.5 -91t-32.5 -122t33.5 -123t92.5 -92q56 -30 118 -30h103q18 0 45 -3z" />
    <glyph glyph-name="dieresis" unicode="&#xa8;" horiz-adv-x="628" 
d="M90 1323q20 0 39 -10t29.5 -29t10.5 -41q0 -21 -10 -39.5t-29 -29t-40 -10.5t-40 10.5t-29.5 29.5t-10.5 39q0 21 11 40.5t29.5 29.5t39.5 10zM409 1323q20 0 39 -10t29.5 -29t10.5 -41q0 -21 -10 -39.5t-29 -29t-40 -10.5t-40 10.5t-29.5 29.5t-10.5 39q0 21 11 40.5
t29.5 29.5t39.5 10z" />
    <glyph glyph-name="guillemotleft" unicode="&#xab;" horiz-adv-x="753" 
d="M300 236h-69v-43l-221 286l221 286v-43h69l-275 -243zM613 236h-69v-43l-221 286l221 286v-43h69l-275 -243z" />
    <glyph glyph-name="logicalnot" unicode="&#xac;" horiz-adv-x="904" 
d="M10 727h741v-392h13l-34 -34v406h-720v20z" />
    <glyph glyph-name="degree" unicode="&#xb0;" horiz-adv-x="686" 
d="M468 1353.5q78 -78.5 78 -190.5t-77.5 -189.5t-189.5 -77.5t-190.5 77.5t-78.5 189.5t79 190.5t190 78.5t189 -78.5zM124 1318.5q-64 -63.5 -64 -154.5t62.5 -154.5t154.5 -63.5q90 0 154.5 64.5t64.5 153.5q0 90 -63.5 154t-153.5 64q-91 0 -155 -63.5z" />
    <glyph glyph-name="acute" unicode="&#xb4;" horiz-adv-x="456" 
d="M274 1228l-264 -80q142 165 167 190q15 16 35 23q11 3 23 3q9 0 18 -2q22 -6 37 -20q14 -13 22 -37q4 -11 4 -20q0 -7 -3 -16q-6 -24 -39 -41z" />
    <glyph glyph-name="paragraph" unicode="&#xb6;" horiz-adv-x="1044" 
d="M646 596v-536h-146v536h-97q-103 0 -196.5 52t-145 145t-51.5 194q0 103 53.5 197t146.5 145t193 51h501v-1320h-146v536h-112z" />
    <glyph glyph-name="periodcentered" unicode="&#xb7;" horiz-adv-x="285" 
d="M78.498 787.595q16.999 0 33.1484 -8.5q16.1504 -8.49902 25.0742 -24.6494q8.9248 -16.1494 8.9248 -34.8486q0 -17.8496 -8.49902 -33.5742q-8.5 -15.7246 -24.6494 -24.6494t-33.999 -8.9248t-33.999 8.9248t-25.0742 25.0742q-8.9248 16.1504 -8.9248 33.1494
q0 17.8496 9.34961 34.4238q9.34961 16.5752 25.0742 25.0742q15.7246 8.5 33.5742 8.5z" />
    <glyph glyph-name="periodcentered" unicode="&#x2219;" horiz-adv-x="285" 
d="M78.498 787.595q16.999 0 33.1484 -8.5q16.1504 -8.49902 25.0742 -24.6494q8.9248 -16.1494 8.9248 -34.8486q0 -17.8496 -8.49902 -33.5742q-8.5 -15.7246 -24.6494 -24.6494t-33.999 -8.9248t-33.999 8.9248t-25.0742 25.0742q-8.9248 16.1504 -8.9248 33.1494
q0 17.8496 9.34961 34.4238q9.34961 16.5752 25.0742 25.0742q15.7246 8.5 33.5742 8.5z" />
    <glyph glyph-name="cedilla" unicode="&#xb8;" horiz-adv-x="438" 
d="M10 -397q8 -5 92 -5q86 0 156 19t90 107q1 140 -134 157q-66 5 -140 5h-4q0 2 51 7l13 47h-68l-41 -116q126 16 152 17q63 0 92 -24.5t29 -69.5q0 -46 -38.5 -75.5t-120.5 -29.5q-97 0 -129 13v-52z" />
    <glyph glyph-name="guillemotright" unicode="&#xbb;" horiz-adv-x="753" 
d="M284 479l-274 243h69v43l221 -286l-221 -286v43h-69zM597 479l-274 243h69v43l221 -286l-221 -286v43h-69z" />
    <glyph glyph-name="questiondown" unicode="&#xbf;" horiz-adv-x="832" 
d="M369 652q-20 0 -39 10t-29.5 29t-10.5 41q0 21 10 39.5t29.5 29t39.5 10.5q21 0 40 -10.5t29.5 -29.5t10.5 -39q0 -21 -11 -40.5t-29.5 -29.5t-39.5 -10zM444 278q0 -253 -189 -460l-66 -89q-34 -65 -34 -128q0 -65 33.5 -124.5t92.5 -91t121 -31.5t121 32t94 94v-1
l75 -150q-20 -28 -97 -70q-93 -51 -192 -51q-100 0 -193 51t-146.5 145t-53.5 197q0 102 52 195q10 19 63 89v-2q173 181 173 395h146z" />
    <glyph glyph-name="Agrave" unicode="&#xc0;" horiz-adv-x="1200" 
d="M536 1206l-204 -628h406zM285 432l-121 -372h-154l444 1321h161l445 -1321h-154l-121 372h-500zM238 1838q-3 9 -3 16q0 9 4 20q8 24 22 37q15 14 37 20q9 2 18 2q12 0 23 -3q20 -7 35 -23q25 -25 167 -190l-264 80q-33 17 -39 41z" />
    <glyph glyph-name="Aacute" unicode="&#xc1;" horiz-adv-x="1200" 
d="M536 1206l-204 -628h406zM285 432l-121 -372h-154l444 1321h161l445 -1321h-154l-121 372h-500zM645 1797l-264 -80q142 165 167 190q15 16 35 23q11 3 23 3q9 0 18 -2q22 -6 37 -20q14 -13 22 -37q4 -11 4 -20q0 -7 -3 -16q-6 -24 -39 -41z" />
    <glyph glyph-name="Acircumflex" unicode="&#xc2;" horiz-adv-x="1200" 
d="M536 1206l-204 -628h406zM285 432l-121 -372h-154l444 1321h161l445 -1321h-154l-121 372h-500zM355 1708l154 235h53l154 -235h76l-256 238l-257 -238h76z" />
    <glyph glyph-name="Atilde" unicode="&#xc3;" horiz-adv-x="1319" 
d="M596 1206l-204 -628h406zM345 432l-121 -372h-154l444 1321h161l445 -1321h-154l-121 372h-500zM591 1649l-2 1q0 -1 1 -1q-7 3 -16 5q-135 49 -237 49q-162 0 -201 -68l-126 73q82 141 312 141q136 0 313 -64q125 -42 218 -42q161 0 200 68l126 -73q-81 -141 -311 -141
q-121 0 -277 52z" />
    <glyph glyph-name="Adieresis" unicode="&#xc4;" horiz-adv-x="1200" 
d="M536 1206l-204 -628h406zM285 432l-121 -372h-154l444 1321h161l445 -1321h-154l-121 372h-500zM384 1892q20 0 39 -10t29.5 -29t10.5 -41q0 -21 -10 -39.5t-29 -29t-40 -10.5t-40 10.5t-29.5 29.5t-10.5 39q0 21 11 40.5t29.5 29.5t39.5 10zM703 1892q20 0 39 -10
t29.5 -29t10.5 -41q0 -21 -10 -39.5t-29 -29t-40 -10.5t-40 10.5t-29.5 29.5t-10.5 39q0 21 11 40.5t29.5 29.5t39.5 10z" />
    <glyph glyph-name="Aring" unicode="&#xc5;" horiz-adv-x="1200" 
d="M536 1206l-204 -628h406zM285 432l-121 -372h-154l444 1321h161l445 -1321h-154l-121 372h-500zM420 1938q47 47 113 47t113 -47t47 -112q0 -67 -46.5 -113.5t-113.5 -46.5t-113.5 46.5t-46.5 113.5q0 65 47 112zM450.5 1742q33.5 -34 82.5 -34q51 0 85 34t34 84
q0 49 -34 83t-85 34q-49 0 -82.5 -33.5t-33.5 -83.5t33.5 -84z" />
    <glyph glyph-name="AE" unicode="&#xc6;" horiz-adv-x="1858" 
d="M536 1206l-204 -628h406zM285 432l-121 -372h-154l444 1321h161l445 -1321h-154l-121 372h-500zM1079 206h639v-146h-785v1320h765v-146h-619v-495h373v-146h-373v-387z" />
    <glyph glyph-name="Ccedilla" unicode="&#xc7;" horiz-adv-x="1260" 
d="M10 727q2 173 91 333q90 160 251 247t331 87t333 -87q82 -45 104 -67l-107 -107q-9 9 -74 44q-124 66 -256 66q-131 0 -256 -67t-195 -194q-71 -125 -71 -262t71 -261q70 -127 195 -194.5t256 -67.5q132 0 256 67q65 34 74 43l107 -107q-22 -22 -104 -66
q-163 -88 -333 -88t-331 86.5t-251 248.5q-89 159 -91 331v15zM434 -397q8 -5 92 -5q86 0 156 19t90 107q1 140 -134 157q-66 5 -140 5h-4q0 2 51 7l13 47h-68l-41 -116q126 16 152 17q63 0 92 -24.5t29 -69.5q0 -46 -38.5 -75.5t-120.5 -29.5q-97 0 -129 13v-52z" />
    <glyph glyph-name="Egrave" unicode="&#xc8;" horiz-adv-x="935" 
d="M156 206h639v-146h-785v1320h765v-146h-619v-495h373v-146h-373v-387zM106 1838q-3 9 -3 16q0 9 4 20q8 24 22 37q15 14 37 20q9 2 18 2q12 0 23 -3q20 -7 35 -23q25 -25 167 -190l-264 80q-33 17 -39 41z" />
    <glyph glyph-name="Eacute" unicode="&#xc9;" horiz-adv-x="935" 
d="M156 206h639v-146h-785v1320h765v-146h-619v-495h373v-146h-373v-387zM513 1797l-264 -80q142 165 167 190q15 16 35 23q11 3 23 3q9 0 18 -2q22 -6 37 -20q14 -13 22 -37q4 -11 4 -20q0 -7 -3 -16q-6 -24 -39 -41z" />
    <glyph glyph-name="Ecircumflex" unicode="&#xca;" horiz-adv-x="935" 
d="M156 206h639v-146h-785v1320h765v-146h-619v-495h373v-146h-373v-387zM222 1708l154 235h53l154 -235h76l-256 238l-257 -238h76z" />
    <glyph glyph-name="Edieresis" unicode="&#xcb;" horiz-adv-x="935" 
d="M156 206h639v-146h-785v1320h765v-146h-619v-495h373v-146h-373v-387zM252 1892q20 0 39 -10t29.5 -29t10.5 -41q0 -21 -10 -39.5t-29 -29t-40 -10.5t-40 10.5t-29.5 29.5t-10.5 39q0 21 11 40.5t29.5 29.5t39.5 10zM571 1892q20 0 39 -10t29.5 -29t10.5 -41
q0 -21 -10 -39.5t-29 -29t-40 -10.5t-40 10.5t-29.5 29.5t-10.5 39q0 21 11 40.5t29.5 29.5t39.5 10z" />
    <glyph glyph-name="Igrave" unicode="&#xcc;" horiz-adv-x="522" 
d="M236 60v1320h146v-1320h-146zM13 1838q-3 9 -3 16q0 9 4 20q8 24 22 37q15 14 37 20q9 2 18 2q12 0 23 -3q20 -7 35 -23q25 -25 167 -190l-264 80q-33 17 -39 41z" />
    <glyph glyph-name="Iacute" unicode="&#xcd;" horiz-adv-x="499" 
d="M91 60v1320h146v-1320h-146zM274 1797l-264 -80q142 165 167 190q15 16 35 23q11 3 23 3q9 0 18 -2q22 -6 37 -20q14 -13 22 -37q4 -11 4 -20q0 -7 -3 -16q-6 -24 -39 -41z" />
    <glyph glyph-name="Icircumflex" unicode="&#xce;" horiz-adv-x="663" 
d="M194 60v1320h146v-1320h-146zM86 1708l154 235h53l154 -235h76l-256 238l-257 -238h76z" />
    <glyph glyph-name="Idieresis" unicode="&#xcf;" horiz-adv-x="628" 
d="M168 60v1320h146v-1320h-146zM90 1892q20 0 39 -10t29.5 -29t10.5 -41q0 -21 -10 -39.5t-29 -29t-40 -10.5t-40 10.5t-29.5 29.5t-10.5 39q0 21 11 40.5t29.5 29.5t39.5 10zM409 1892q20 0 39 -10t29.5 -29t10.5 -41q0 -21 -10 -39.5t-29 -29t-40 -10.5t-40 10.5
t-29.5 29.5t-10.5 39q0 21 11 40.5t29.5 29.5t39.5 10z" />
    <glyph glyph-name="Eth" unicode="&#xd0;" horiz-adv-x="1548" 
d="M747 1380q167 0 324.5 -85.5t247 -244t89.5 -331.5q0 -171 -87 -328t-244.5 -244t-329.5 -87h-315v1320h315zM747 206q135 0 257 68t190 190t68 255q0 135 -69.5 259t-192.5 190t-253 66h-169v-1028h169zM10 647v146h946v-146h-946z" />
    <glyph glyph-name="Ntilde" unicode="&#xd1;" horiz-adv-x="1319" 
d="M284 1119v-1059h-146v1320h146l622 -1046v1046h146v-1320h-146zM591 1649l-2 1q0 -1 1 -1q-7 3 -16 5q-135 49 -237 49q-162 0 -201 -68l-126 73q82 141 312 141q136 0 313 -64q125 -42 218 -42q161 0 200 68l126 -73q-81 -141 -311 -141q-121 0 -277 52z" />
    <glyph glyph-name="Ograve" unicode="&#xd2;" horiz-adv-x="1499" 
d="M684 1394q170 0 331 -87t252.5 -249t91.5 -339q0 -175 -89 -335t-250 -249t-336 -89t-336 89t-249.5 249t-88.5 335q0 177 90.5 339t251.5 249t332 87zM427 1176q-125 -67 -195 -193t-70 -264q0 -135 68.5 -259t193 -193.5t260.5 -69.5q137 0 261 69.5t193 193t69 259.5
q0 138 -70.5 264t-195.5 193t-257 67t-257 -67zM388 1838q-3 9 -3 16q0 9 4 20q8 24 22 37q15 14 37 20q9 2 18 2q12 0 23 -3q20 -7 35 -23q25 -25 167 -190l-264 80q-33 17 -39 41z" />
    <glyph glyph-name="Oacute" unicode="&#xd3;" horiz-adv-x="1499" 
d="M684 1394q170 0 331 -87t252.5 -249t91.5 -339q0 -175 -89 -335t-250 -249t-336 -89t-336 89t-249.5 249t-88.5 335q0 177 90.5 339t251.5 249t332 87zM427 1176q-125 -67 -195 -193t-70 -264q0 -135 68.5 -259t193 -193.5t260.5 -69.5q137 0 261 69.5t193 193t69 259.5
q0 138 -70.5 264t-195.5 193t-257 67t-257 -67zM795 1797l-264 -80q142 165 167 190q15 16 35 23q11 3 23 3q9 0 18 -2q22 -6 37 -20q14 -13 22 -37q4 -11 4 -20q0 -7 -3 -16q-6 -24 -39 -41z" />
    <glyph glyph-name="Ocircumflex" unicode="&#xd4;" horiz-adv-x="1499" 
d="M684 1394q170 0 331 -87t252.5 -249t91.5 -339q0 -175 -89 -335t-250 -249t-336 -89t-336 89t-249.5 249t-88.5 335q0 177 90.5 339t251.5 249t332 87zM427 1176q-125 -67 -195 -193t-70 -264q0 -135 68.5 -259t193 -193.5t260.5 -69.5q137 0 261 69.5t193 193t69 259.5
q0 138 -70.5 264t-195.5 193t-257 67t-257 -67zM504 1708l154 235h53l154 -235h76l-256 238l-257 -238h76z" />
    <glyph glyph-name="Otilde" unicode="&#xd5;" horiz-adv-x="1499" 
d="M684 1394q170 0 331 -87t252.5 -249t91.5 -339q0 -175 -89 -335t-250 -249t-336 -89t-336 89t-249.5 249t-88.5 335q0 177 90.5 339t251.5 249t332 87zM427 1176q-125 -67 -195 -193t-70 -264q0 -135 68.5 -259t193 -193.5t260.5 -69.5q137 0 261 69.5t193 193t69 259.5
q0 138 -70.5 264t-195.5 193t-257 67t-257 -67zM681 1649l-2 1q0 -1 1 -1q-7 3 -16 5q-135 49 -237 49q-162 0 -201 -68l-126 73q82 141 312 141q136 0 313 -64q125 -42 218 -42q161 0 200 68l126 -73q-81 -141 -311 -141q-121 0 -277 52z" />
    <glyph glyph-name="Odieresis" unicode="&#xd6;" horiz-adv-x="1499" 
d="M684 1394q170 0 331 -87t252.5 -249t91.5 -339q0 -175 -89 -335t-250 -249t-336 -89t-336 89t-249.5 249t-88.5 335q0 177 90.5 339t251.5 249t332 87zM427 1176q-125 -67 -195 -193t-70 -264q0 -135 68.5 -259t193 -193.5t260.5 -69.5q137 0 261 69.5t193 193t69 259.5
q0 138 -70.5 264t-195.5 193t-257 67t-257 -67zM534 1892q20 0 39 -10t29.5 -29t10.5 -41q0 -21 -10 -39.5t-29 -29t-40 -10.5t-40 10.5t-29.5 29.5t-10.5 39q0 21 11 40.5t29.5 29.5t39.5 10zM853 1892q20 0 39 -10t29.5 -29t10.5 -41q0 -21 -10 -39.5t-29 -29t-40 -10.5
t-40 10.5t-29.5 29.5t-10.5 39q0 21 11 40.5t29.5 29.5t39.5 10z" />
    <glyph glyph-name="multiply" unicode="&#xd7;" horiz-adv-x="827" 
d="M276 597h-266v146h266v266h146v-266h265v-146h-265v-265h-146v265z" />
    <glyph glyph-name="Oslash" unicode="&#xd8;" horiz-adv-x="1499" 
d="M684 1394q170 0 331 -87t252.5 -249t91.5 -339q0 -175 -89 -335t-250 -249t-336 -89t-336 89t-249.5 249t-88.5 335q0 177 90.5 339t251.5 249t332 87zM427 1176q-125 -67 -195 -193t-70 -264q0 -135 68.5 -259t193 -193.5t260.5 -69.5q137 0 261 69.5t193 193t69 259.5
q0 138 -70.5 264t-195.5 193t-257 67t-257 -67zM925 1696v-50h138l-601 -1852h-154z" />
    <glyph glyph-name="Ugrave" unicode="&#xd9;" horiz-adv-x="1047" 
d="M403 60q-103 0 -196.5 52t-145 145t-51.5 194v929h145v-929q0 -63 32.5 -122t91.5 -91t123 -32h113q64 0 123 32t91.5 91t32.5 122v929h145v-929q0 -101 -51.5 -194t-145 -145t-196.5 -52h-111zM162 1838q-3 9 -3 16q0 9 4 20q8 24 22 37q15 14 37 20q9 2 18 2
q12 0 23 -3q20 -7 35 -23q25 -25 167 -190l-264 80q-33 17 -39 41z" />
    <glyph glyph-name="Uacute" unicode="&#xda;" horiz-adv-x="1047" 
d="M403 60q-103 0 -196.5 52t-145 145t-51.5 194v929h145v-929q0 -63 32.5 -122t91.5 -91t123 -32h113q64 0 123 32t91.5 91t32.5 122v929h145v-929q0 -101 -51.5 -194t-145 -145t-196.5 -52h-111zM569 1797l-264 -80q142 165 167 190q15 16 35 23q11 3 23 3q9 0 18 -2
q22 -6 37 -20q14 -13 22 -37q4 -11 4 -20q0 -7 -3 -16q-6 -24 -39 -41z" />
    <glyph glyph-name="Ucircumflex" unicode="&#xdb;" horiz-adv-x="1047" 
d="M403 60q-103 0 -196.5 52t-145 145t-51.5 194v929h145v-929q0 -63 32.5 -122t91.5 -91t123 -32h113q64 0 123 32t91.5 91t32.5 122v929h145v-929q0 -101 -51.5 -194t-145 -145t-196.5 -52h-111zM278 1708l154 235h53l154 -235h76l-256 238l-257 -238h76z" />
    <glyph glyph-name="Udieresis" unicode="&#xdc;" horiz-adv-x="1047" 
d="M403 60q-103 0 -196.5 52t-145 145t-51.5 194v929h145v-929q0 -63 32.5 -122t91.5 -91t123 -32h113q64 0 123 32t91.5 91t32.5 122v929h145v-929q0 -101 -51.5 -194t-145 -145t-196.5 -52h-111zM308 1892q20 0 39 -10t29.5 -29t10.5 -41q0 -21 -10 -39.5t-29 -29
t-40 -10.5t-40 10.5t-29.5 29.5t-10.5 39q0 21 11 40.5t29.5 29.5t39.5 10zM627 1892q20 0 39 -10t29.5 -29t10.5 -41q0 -21 -10 -39.5t-29 -29t-40 -10.5t-40 10.5t-29.5 29.5t-10.5 39q0 21 11 40.5t29.5 29.5t39.5 10z" />
    <glyph glyph-name="Yacute" unicode="&#xdd;" horiz-adv-x="1066" 
d="M541 701v-641h-146v641l-28 49l-357 630h169l289 -511l289 511h169l-357 -630zM578 1797l-264 -80q142 165 167 190q15 16 35 23q11 3 23 3q9 0 18 -2q22 -6 37 -20q14 -13 22 -37q4 -11 4 -20q0 -7 -3 -16q-6 -24 -39 -41z" />
    <glyph glyph-name="Thorn" unicode="&#xde;" horiz-adv-x="1044" 
d="M156 1034v-492h356q64 0 123 32t91.5 91t32.5 122q0 65 -33.5 124.5t-92.5 91t-121 31.5h-356zM156 396v-536h-146v1320h501q100 0 193 -51t146.5 -145t53.5 -197q0 -101 -51.5 -194t-145 -145t-196.5 -52h-355zM10 412v1320h146v-1320h-146z" />
    <glyph glyph-name="germandbls" unicode="&#xdf;" horiz-adv-x="0" 
 />
    <glyph glyph-name="agrave" unicode="&#xe0;" 
d="M360 867q-87 -46 -135.5 -133.5t-48.5 -183.5q0 -93 47.5 -179t134 -134.5t180.5 -48.5q95 0 181 48.5t134 134t48 179.5q0 96 -49 183.5t-135.5 133.5t-178.5 46q-91 0 -178 -46zM1027 60h-146v118l-108 -65q-122 -67 -255 -67t-254 67t-187.5 187.5t-66.5 252.5
q0 134 68 256t189.5 187.5t250.5 65.5q128 0 250 -65q11 -7 113 -66v117h146v-988zM51 1269q-3 9 -3 16q0 9 4 20q8 24 22 37q15 14 37 20q9 2 18 2q12 0 23 -3q20 -7 35 -23q25 -25 167 -190l-264 80q-33 17 -39 41z" />
    <glyph glyph-name="aacute" unicode="&#xe1;" 
d="M360 867q-87 -46 -135.5 -133.5t-48.5 -183.5q0 -93 47.5 -179t134 -134.5t180.5 -48.5q95 0 181 48.5t134 134t48 179.5q0 96 -49 183.5t-135.5 133.5t-178.5 46q-91 0 -178 -46zM1027 60h-146v118l-108 -65q-122 -67 -255 -67t-254 67t-187.5 187.5t-66.5 252.5
q0 134 68 256t189.5 187.5t250.5 65.5q128 0 250 -65q11 -7 113 -66v117h146v-988zM457 1228l-264 -80q142 165 167 190q15 16 35 23q11 3 23 3q9 0 18 -2q22 -6 37 -20q14 -13 22 -37q4 -11 4 -20q0 -7 -3 -16q-6 -24 -39 -41z" />
    <glyph glyph-name="acircumflex" unicode="&#xe2;" 
d="M360 867q-87 -46 -135.5 -133.5t-48.5 -183.5q0 -93 47.5 -179t134 -134.5t180.5 -48.5q95 0 181 48.5t134 134t48 179.5q0 96 -49 183.5t-135.5 133.5t-178.5 46q-91 0 -178 -46zM1027 60h-146v118l-108 -65q-122 -67 -255 -67t-254 67t-187.5 187.5t-66.5 252.5
q0 134 68 256t189.5 187.5t250.5 65.5q128 0 250 -65q11 -7 113 -66v117h146v-988zM166 1139l154 235h53l154 -235h76l-256 238l-257 -238h76z" />
    <glyph glyph-name="atilde" unicode="&#xe3;" horiz-adv-x="1415" 
d="M608 867q-87 -46 -135.5 -133.5t-48.5 -183.5q0 -93 47.5 -179t134 -134.5t180.5 -48.5q95 0 181 48.5t134 134t48 179.5q0 96 -49 183.5t-135.5 133.5t-178.5 46q-91 0 -178 -46zM1275 60h-146v118l-108 -65q-122 -67 -255 -67t-254 67t-187.5 187.5t-66.5 252.5
q0 134 68 256t189.5 187.5t250.5 65.5q128 0 250 -65q11 -7 113 -66v117h146v-988zM591 1080l-2 1q0 -1 1 -1q-7 3 -16 5q-135 49 -237 49q-162 0 -201 -68l-126 73q82 141 312 141q136 0 313 -64q125 -42 218 -42q161 0 200 68l126 -73q-81 -141 -311 -141q-121 0 -277 52z
" />
    <glyph glyph-name="adieresis" unicode="&#xe4;" 
d="M360 867q-87 -46 -135.5 -133.5t-48.5 -183.5q0 -93 47.5 -179t134 -134.5t180.5 -48.5q95 0 181 48.5t134 134t48 179.5q0 96 -49 183.5t-135.5 133.5t-178.5 46q-91 0 -178 -46zM1027 60h-146v118l-108 -65q-122 -67 -255 -67t-254 67t-187.5 187.5t-66.5 252.5
q0 134 68 256t189.5 187.5t250.5 65.5q128 0 250 -65q11 -7 113 -66v117h146v-988zM197 1323q20 0 39 -10t29.5 -29t10.5 -41q0 -21 -10 -39.5t-29 -29t-40 -10.5t-40 10.5t-29.5 29.5t-10.5 39q0 21 11 40.5t29.5 29.5t39.5 10zM516 1323q20 0 39 -10t29.5 -29t10.5 -41
q0 -21 -10 -39.5t-29 -29t-40 -10.5t-40 10.5t-29.5 29.5t-10.5 39q0 21 11 40.5t29.5 29.5t39.5 10z" />
    <glyph glyph-name="aring" unicode="&#xe5;" 
d="M360 867q-87 -46 -135.5 -133.5t-48.5 -183.5q0 -93 47.5 -179t134 -134.5t180.5 -48.5q95 0 181 48.5t134 134t48 179.5q0 96 -49 183.5t-135.5 133.5t-178.5 46q-91 0 -178 -46zM1027 60h-146v118l-108 -65q-122 -67 -255 -67t-254 67t-187.5 187.5t-66.5 252.5
q0 134 68 256t189.5 187.5t250.5 65.5q128 0 250 -65q11 -7 113 -66v117h146v-988zM233 1369q47 47 113 47t113 -47t47 -112q0 -67 -46.5 -113.5t-113.5 -46.5t-113.5 46.5t-46.5 113.5q0 65 47 112zM263.5 1173q33.5 -34 82.5 -34q51 0 85 34t34 84q0 49 -34 83t-85 34
q-49 0 -82.5 -33.5t-33.5 -83.5t33.5 -84z" />
    <glyph glyph-name="ae" unicode="&#xe6;" horiz-adv-x="2017" 
d="M360 867q-87 -46 -135.5 -133.5t-48.5 -183.5q0 -93 47.5 -179t134 -134.5t180.5 -48.5q95 0 181 48.5t134 134t48 179.5q0 96 -49 183.5t-135.5 133.5t-178.5 46q-91 0 -178 -46zM1027 60h-146v118l-108 -65q-122 -67 -255 -67t-254 67t-187.5 187.5t-66.5 252.5
q0 134 68 256t189.5 187.5t250.5 65.5q128 0 250 -65q11 -7 113 -66v117h146v-988zM1129 289q169 -101 266 -101h4q100 1 180 48q83 48 133 133l21 30l140 -38q-1 -4 -35 -61q-72 -120 -188 -186q-115 -66 -253 -69h-11q-131 0 -244 68q-120 71 -185 186q-67 116 -69 256v7
q0 135 70 248q73 119 184 183q111 65 250 69h13q65 0 126 -17q63 -18 121 -51q111 -64 184 -182q38 -61 41 -73zM1052 410l637 369q-88 72 -111 86q-69 39 -98 42v7h-86q-97 -4 -177 -50q-79 -46 -130 -127q-51 -82 -51 -178v-7q0 -27 16 -142z" />
    <glyph glyph-name="ccedilla" unicode="&#xe7;" horiz-adv-x="979" 
d="M732 251l102 -102q-3 -3 -61 -36q-122 -67 -255 -67t-254 67t-187.5 187.5t-66.5 252.5q0 134 68.5 256t189.5 187.5t250 65.5q128 0 251 -66q63 -34 70 -41l-105 -104l-39 17q-85 45 -177 45q-91 0 -178 -46t-135.5 -133.5t-48.5 -183.5q0 -93 47.5 -179t134 -134.5
t180.5 -48.5q95 0 180 49zM209 -397q8 -5 92 -5q86 0 156 19t90 107q1 140 -134 157q-66 5 -140 5h-4q0 2 51 7l13 47h-68l-41 -116q126 16 152 17q63 0 92 -24.5t29 -69.5q0 -46 -38.5 -75.5t-120.5 -29.5q-97 0 -129 13v-52z" />
    <glyph glyph-name="egrave" unicode="&#xe8;" horiz-adv-x="1139" 
d="M251 289q169 -101 266 -101h4q100 1 180 48q83 48 133 133l21 30l140 -38q-1 -4 -35 -61q-72 -120 -188 -186q-115 -66 -253 -69h-11q-131 0 -244 68q-120 71 -185 186q-67 116 -69 256v7q0 135 70 248q73 119 184 183q111 65 250 69h13q65 0 126 -17q63 -18 121 -51
q111 -64 184 -182q38 -61 41 -73zM174 410l637 369q-88 72 -111 86q-69 39 -98 42v7h-86q-97 -4 -177 -50q-79 -46 -130 -127q-51 -82 -51 -178v-7q0 -27 16 -142zM118 1269q-3 9 -3 16q0 9 4 20q8 24 22 37q15 14 37 20q9 2 18 2q12 0 23 -3q20 -7 35 -23q25 -25 167 -190
l-264 80q-33 17 -39 41z" />
    <glyph glyph-name="eacute" unicode="&#xe9;" horiz-adv-x="1139" 
d="M251 289q169 -101 266 -101h4q100 1 180 48q83 48 133 133l21 30l140 -38q-1 -4 -35 -61q-72 -120 -188 -186q-115 -66 -253 -69h-11q-131 0 -244 68q-120 71 -185 186q-67 116 -69 256v7q0 135 70 248q73 119 184 183q111 65 250 69h13q65 0 126 -17q63 -18 121 -51
q111 -64 184 -182q38 -61 41 -73zM174 410l637 369q-88 72 -111 86q-69 39 -98 42v7h-86q-97 -4 -177 -50q-79 -46 -130 -127q-51 -82 -51 -178v-7q0 -27 16 -142zM525 1228l-264 -80q142 165 167 190q15 16 35 23q11 3 23 3q9 0 18 -2q22 -6 37 -20q14 -13 22 -37
q4 -11 4 -20q0 -7 -3 -16q-6 -24 -39 -41z" />
    <glyph glyph-name="ecircumflex" unicode="&#xea;" horiz-adv-x="1139" 
d="M251 289q169 -101 266 -101h4q100 1 180 48q83 48 133 133l21 30l140 -38q-1 -4 -35 -61q-72 -120 -188 -186q-115 -66 -253 -69h-11q-131 0 -244 68q-120 71 -185 186q-67 116 -69 256v7q0 135 70 248q73 119 184 183q111 65 250 69h13q65 0 126 -17q63 -18 121 -51
q111 -64 184 -182q38 -61 41 -73zM174 410l637 369q-88 72 -111 86q-69 39 -98 42v7h-86q-97 -4 -177 -50q-79 -46 -130 -127q-51 -82 -51 -178v-7q0 -27 16 -142zM234 1139l154 235h53l154 -235h76l-256 238l-257 -238h76z" />
    <glyph glyph-name="edieresis" unicode="&#xeb;" horiz-adv-x="1139" 
d="M251 289q169 -101 266 -101h4q100 1 180 48q83 48 133 133l21 30l140 -38q-1 -4 -35 -61q-72 -120 -188 -186q-115 -66 -253 -69h-11q-131 0 -244 68q-120 71 -185 186q-67 116 -69 256v7q0 135 70 248q73 119 184 183q111 65 250 69h13q65 0 126 -17q63 -18 121 -51
q111 -64 184 -182q38 -61 41 -73zM174 410l637 369q-88 72 -111 86q-69 39 -98 42v7h-86q-97 -4 -177 -50q-79 -46 -130 -127q-51 -82 -51 -178v-7q0 -27 16 -142zM264 1323q20 0 39 -10t29.5 -29t10.5 -41q0 -21 -10 -39.5t-29 -29t-40 -10.5t-40 10.5t-29.5 29.5t-10.5 39
q0 21 11 40.5t29.5 29.5t39.5 10zM583 1323q20 0 39 -10t29.5 -29t10.5 -41q0 -21 -10 -39.5t-29 -29t-40 -10.5t-40 10.5t-29.5 29.5t-10.5 39q0 21 11 40.5t29.5 29.5t39.5 10z" />
    <glyph glyph-name="igrave" unicode="&#xec;" horiz-adv-x="483" 
d="M197 60v751h146v-751h-146zM13 1269q-3 9 -3 16q0 9 4 20q8 24 22 37q15 14 37 20q9 2 18 2q12 0 23 -3q20 -7 35 -23q25 -25 167 -190l-264 80q-33 17 -39 41z" />
    <glyph glyph-name="iacute" unicode="&#xed;" horiz-adv-x="510" 
d="M51 60v751h146v-751h-146zM274 1228l-264 -80q142 165 167 190q15 16 35 23q11 3 23 3q9 0 18 -2q22 -6 37 -20q14 -13 22 -37q4 -11 4 -20q0 -7 -3 -16q-6 -24 -39 -41z" />
    <glyph glyph-name="icircumflex" unicode="&#xee;" horiz-adv-x="663" 
d="M155 60v751h146v-751h-146zM86 1139l154 235h53l154 -235h76l-256 238l-257 -238h76z" />
    <glyph glyph-name="idieresis" unicode="&#xef;" horiz-adv-x="628" 
d="M128 60v751h146v-751h-146zM90 1323q20 0 39 -10t29.5 -29t10.5 -41q0 -21 -10 -39.5t-29 -29t-40 -10.5t-40 10.5t-29.5 29.5t-10.5 39q0 21 11 40.5t29.5 29.5t39.5 10zM409 1323q20 0 39 -10t29.5 -29t10.5 -41q0 -21 -10 -39.5t-29 -29t-40 -10.5t-40 10.5
t-29.5 29.5t-10.5 39q0 21 11 40.5t29.5 29.5t39.5 10z" />
    <glyph glyph-name="eth" unicode="&#xf0;" horiz-adv-x="0" 
 />
    <glyph glyph-name="ntilde" unicode="&#xf1;" horiz-adv-x="1319" 
d="M354 633v-573h-146v988h146v-75q182 89 281 89q108 0 210 -55t160 -156q53 -96 58 -197v-594h-146v572q0 74 -38 142t-105.5 104t-138.5 36t-138 -36t-105 -104q-38 -67 -38 -141zM591 1080l-2 1q0 -1 1 -1q-7 3 -16 5q-135 49 -237 49q-162 0 -201 -68l-126 73
q82 141 312 141q136 0 313 -64q125 -42 218 -42q161 0 200 68l126 -73q-81 -141 -311 -141q-121 0 -277 52z" />
    <glyph glyph-name="ograve" unicode="&#xf2;" 
d="M518 1062q128 0 249.5 -65.5t190.5 -187.5t69 -256q0 -131 -67 -252t-188 -188t-254 -67t-254 67t-187.5 187.5t-66.5 252.5q0 134 68 256t189.5 187.5t250.5 65.5zM340 867q-87 -46 -135.5 -133.5t-48.5 -183.5q0 -93 47.5 -179t134 -134.5t180.5 -48.5q95 0 181 48.5
t134 134t48 179.5q0 96 -49 183.5t-135.5 133.5t-178.5 46q-91 0 -178 -46zM101 1269q-3 9 -3 16q0 9 4 20q8 24 22 37q15 14 37 20q9 2 18 2q12 0 23 -3q20 -7 35 -23q25 -25 167 -190l-264 80q-33 17 -39 41z" />
    <glyph glyph-name="oacute" unicode="&#xf3;" 
d="M518 1062q128 0 249.5 -65.5t190.5 -187.5t69 -256q0 -131 -67 -252t-188 -188t-254 -67t-254 67t-187.5 187.5t-66.5 252.5q0 134 68 256t189.5 187.5t250.5 65.5zM340 867q-87 -46 -135.5 -133.5t-48.5 -183.5q0 -93 47.5 -179t134 -134.5t180.5 -48.5q95 0 181 48.5
t134 134t48 179.5q0 96 -49 183.5t-135.5 133.5t-178.5 46q-91 0 -178 -46zM507 1228l-264 -80q142 165 167 190q15 16 35 23q11 3 23 3q9 0 18 -2q22 -6 37 -20q14 -13 22 -37q4 -11 4 -20q0 -7 -3 -16q-6 -24 -39 -41z" />
    <glyph glyph-name="ocircumflex" unicode="&#xf4;" 
d="M518 1062q128 0 249.5 -65.5t190.5 -187.5t69 -256q0 -131 -67 -252t-188 -188t-254 -67t-254 67t-187.5 187.5t-66.5 252.5q0 134 68 256t189.5 187.5t250.5 65.5zM340 867q-87 -46 -135.5 -133.5t-48.5 -183.5q0 -93 47.5 -179t134 -134.5t180.5 -48.5q95 0 181 48.5
t134 134t48 179.5q0 96 -49 183.5t-135.5 133.5t-178.5 46q-91 0 -178 -46zM216 1139l154 235h53l154 -235h76l-256 238l-257 -238h76z" />
    <glyph glyph-name="otilde" unicode="&#xf5;" horiz-adv-x="1365" 
d="M716 1062q128 0 249.5 -65.5t190.5 -187.5t69 -256q0 -131 -67 -252t-188 -188t-254 -67t-254 67t-187.5 187.5t-66.5 252.5q0 134 68 256t189.5 187.5t250.5 65.5zM538 867q-87 -46 -135.5 -133.5t-48.5 -183.5q0 -93 47.5 -179t134 -134.5t180.5 -48.5q95 0 181 48.5
t134 134t48 179.5q0 96 -49 183.5t-135.5 133.5t-178.5 46q-91 0 -178 -46zM591 1080l-2 1q0 -1 1 -1q-7 3 -16 5q-135 49 -237 49q-162 0 -201 -68l-126 73q82 141 312 141q136 0 313 -64q125 -42 218 -42q161 0 200 68l126 -73q-81 -141 -311 -141q-121 0 -277 52z" />
    <glyph glyph-name="odieresis" unicode="&#xf6;" 
d="M518 1062q128 0 249.5 -65.5t190.5 -187.5t69 -256q0 -131 -67 -252t-188 -188t-254 -67t-254 67t-187.5 187.5t-66.5 252.5q0 134 68 256t189.5 187.5t250.5 65.5zM340 867q-87 -46 -135.5 -133.5t-48.5 -183.5q0 -93 47.5 -179t134 -134.5t180.5 -48.5q95 0 181 48.5
t134 134t48 179.5q0 96 -49 183.5t-135.5 133.5t-178.5 46q-91 0 -178 -46zM247 1323q20 0 39 -10t29.5 -29t10.5 -41q0 -21 -10 -39.5t-29 -29t-40 -10.5t-40 10.5t-29.5 29.5t-10.5 39q0 21 11 40.5t29.5 29.5t39.5 10zM566 1323q20 0 39 -10t29.5 -29t10.5 -41
q0 -21 -10 -39.5t-29 -29t-40 -10.5t-40 10.5t-29.5 29.5t-10.5 39q0 21 11 40.5t29.5 29.5t39.5 10z" />
    <glyph glyph-name="divide" unicode="&#xf7;" horiz-adv-x="904" 
d="M10 707v20h754l-34 34v-54h-720zM371 448q20 0 39 -10t29.5 -29t10.5 -41q0 -21 -10 -39.5t-29 -29t-40 -10.5t-40 10.5t-29.5 29.5t-10.5 39q0 21 11 40.5t29.5 29.5t39.5 10zM371 1145q20 0 39 -10t29.5 -29t10.5 -41q0 -21 -10 -39.5t-29 -29t-40 -10.5t-40 10.5
t-29.5 29.5t-10.5 39q0 21 11 40.5t29.5 29.5t39.5 10z" />
    <glyph glyph-name="oslash" unicode="&#xf8;" 
d="M518 1062q128 0 249.5 -65.5t190.5 -187.5t69 -256q0 -131 -67 -252t-188 -188t-254 -67t-254 67t-187.5 187.5t-66.5 252.5q0 134 68 256t189.5 187.5t250.5 65.5zM340 867q-87 -46 -135.5 -133.5t-48.5 -183.5q0 -93 47.5 -179t134 -134.5t180.5 -48.5q95 0 181 48.5
t134 134t48 179.5q0 96 -49 183.5t-135.5 133.5t-178.5 46q-91 0 -178 -46zM637 1696v-50h138l-601 -1852h-154z" />
    <glyph glyph-name="ugrave" unicode="&#xf9;" horiz-adv-x="1005" 
d="M719 474v573h146v-988h-146v75q-182 -89 -281 -89q-108 0 -210 55t-160 157q-53 95 -58 196v594h146v-572q0 -74 38 -142t105.5 -104t138.5 -36t138 36.5t105 104.5q38 66 38 140zM101 1269q-3 9 -3 16q0 9 4 20q8 24 22 37q15 14 37 20q9 2 18 2q12 0 23 -3
q20 -7 35 -23q25 -25 167 -190l-264 80q-33 17 -39 41z" />
    <glyph glyph-name="uacute" unicode="&#xfa;" horiz-adv-x="1005" 
d="M719 474v573h146v-988h-146v75q-182 -89 -281 -89q-108 0 -210 55t-160 157q-53 95 -58 196v594h146v-572q0 -74 38 -142t105.5 -104t138.5 -36t138 36.5t105 104.5q38 66 38 140zM507 1228l-264 -80q142 165 167 190q15 16 35 23q11 3 23 3q9 0 18 -2q22 -6 37 -20
q14 -13 22 -37q4 -11 4 -20q0 -7 -3 -16q-6 -24 -39 -41z" />
    <glyph glyph-name="ucircumflex" unicode="&#xfb;" horiz-adv-x="1005" 
d="M719 474v573h146v-988h-146v75q-182 -89 -281 -89q-108 0 -210 55t-160 157q-53 95 -58 196v594h146v-572q0 -74 38 -142t105.5 -104t138.5 -36t138 36.5t105 104.5q38 66 38 140zM216 1139l154 235h53l154 -235h76l-256 238l-257 -238h76z" />
    <glyph glyph-name="udieresis" unicode="&#xfc;" horiz-adv-x="1005" 
d="M719 474v573h146v-988h-146v75q-182 -89 -281 -89q-108 0 -210 55t-160 157q-53 95 -58 196v594h146v-572q0 -74 38 -142t105.5 -104t138.5 -36t138 36.5t105 104.5q38 66 38 140zM247 1323q20 0 39 -10t29.5 -29t10.5 -41q0 -21 -10 -39.5t-29 -29t-40 -10.5t-40 10.5
t-29.5 29.5t-10.5 39q0 21 11 40.5t29.5 29.5t39.5 10zM566 1323q20 0 39 -10t29.5 -29t10.5 -41q0 -21 -10 -39.5t-29 -29t-40 -10.5t-40 10.5t-29.5 29.5t-10.5 39q0 21 11 40.5t29.5 29.5t39.5 10z" />
    <glyph glyph-name="yacute" unicode="&#xfd;" horiz-adv-x="1005" 
d="M865 29q-3 -187 -68 -305q-66 -120 -187 -187t-254 -67q-132 0 -254 67q-59 33 -62 36l136 88q85 -49 180 -49q94 0 180.5 48.5t134 134.5t47.5 119h1v220q-182 -89 -281 -89q-108 0 -210 55t-160 157q-53 95 -58 196v594h146v-572q0 -74 38 -142t105.5 -104t138.5 -36
t138 36.5t105 104.5q38 66 38 140v573h146v-1018zM294 1228l-264 -80q142 165 167 190q15 16 35 23q11 3 23 3q9 0 18 -2q22 -6 37 -20q14 -13 22 -37q4 -11 4 -20q0 -7 -3 -16q-6 -24 -39 -41z" />
    <glyph glyph-name="thorn" unicode="&#xfe;" horiz-adv-x="1175" 
d="M328 867q-87 -46 -135.5 -133.5t-48.5 -183.5q0 -93 47.5 -179t134 -134.5t180.5 -48.5q95 0 181 48.5t134 134t48 179.5q0 96 -49 183.5t-135.5 133.5t-178.5 46q-91 0 -178 -46zM164 927q101 64 111 69q122 66 251 66q128 0 249.5 -65.5t190.5 -187.5t69 -256
q0 -131 -67 -252t-188 -188t-254 -67q-132 0 -255 68q-8 4 -107 70v-456h-146v1320h146v-121zM10 60v1320h146v-1320h-146z" />
    <glyph glyph-name="ydieresis" unicode="&#xff;" horiz-adv-x="1061" 
d="M921 29q-3 -187 -68 -305q-66 -120 -187 -187t-254 -67q-132 0 -254 67q-59 33 -62 36l136 88q85 -49 180 -49q94 0 180.5 48.5t134 134.5t47.5 119h1v220q-182 -89 -281 -89q-108 0 -210 55t-160 157q-53 95 -58 196v594h146v-572q0 -74 38 -142t105.5 -104t138.5 -36
t138 36.5t105 104.5q38 66 38 140v573h146v-1018zM90 1323q20 0 39 -10t29.5 -29t10.5 -41q0 -21 -10 -39.5t-29 -29t-40 -10.5t-40 10.5t-29.5 29.5t-10.5 39q0 21 11 40.5t29.5 29.5t39.5 10zM409 1323q20 0 39 -10t29.5 -29t10.5 -41q0 -21 -10 -39.5t-29 -29t-40 -10.5
t-40 10.5t-29.5 29.5t-10.5 39q0 21 11 40.5t29.5 29.5t39.5 10z" />
    <glyph glyph-name="dotlessi" unicode="&#x131;" horiz-adv-x="296" 
d="M10 60v751h146v-751h-146z" />
    <glyph glyph-name="circumflex" unicode="&#x2c6;" horiz-adv-x="663" 
d="M86 1139l154 235h53l154 -235h76l-256 238l-257 -238h76z" />
    <glyph glyph-name="caron" unicode="&#x2c7;" horiz-adv-x="663" 
d="M86 1374h-76l256 -235l257 235h-76l-154 -236h-53z" />
    <glyph glyph-name="uni02C9" unicode="&#x2c9;" horiz-adv-x="546" 
d="M10 1255v5h396v-5h-396z" />
    <glyph glyph-name="breve" unicode="&#x2d8;" horiz-adv-x="727" 
d="M77 1289h-67q12 -52 88 -96.5t202 -44.5q125 0 200 44t87 97h-66q-7 -43 -64.5 -96.5t-156.5 -53.5t-157.5 54t-65.5 96z" />
    <glyph glyph-name="dotaccent" unicode="&#x2d9;" horiz-adv-x="263" 
d="M84 1319q-3 -3 -7 -4.5t-9 -1.5q-7 0 -11.5 2t-6.5 4l73 -78q-5 4 -7.5 11t-2.5 12q0 1 1.5 4.5t4.5 7.5l-70 -75q-3 -3 -3 -4l3 2q5 3 19 3q1 0 8.5 -3t12.5 -10l-79 92q4 -4 6 -9.5t2 -8.5q0 -7 -2 -12l-3 -5z" />
    <glyph glyph-name="ring" unicode="&#x2da;" horiz-adv-x="470" 
d="M57 1369q47 47 113 47t113 -47t47 -112q0 -67 -46.5 -113.5t-113.5 -46.5t-113.5 46.5t-46.5 113.5q0 65 47 112zM87.5 1173q33.5 -34 82.5 -34q51 0 85 34t34 84q0 49 -34 83t-85 34q-49 0 -82.5 -33.5t-33.5 -83.5t33.5 -84z" />
    <glyph glyph-name="ogonek" unicode="&#x2db;" horiz-adv-x="453" 
d="M61 -60q16 14 20 14q1 0 1 -2q0 -7 -24 -42q-47 -68 -47 -142q0 -71 44.5 -117t115.5 -46q55 0 99 23q38 20 41 20l-75 43q-2 0 -39 -23q-41 -26 -89 -26q-49 0 -73.5 20t-24.5 46q0 56 50.5 123.5t126.5 108.5h-126z" />
    <glyph glyph-name="tilde" unicode="&#x2dc;" horiz-adv-x="1319" 
d="M591 1080l-2 1q0 -1 1 -1q-7 3 -16 5q-135 49 -237 49q-162 0 -201 -68l-126 73q82 141 312 141q136 0 313 -64q125 -42 218 -42q161 0 200 68l126 -73q-81 -141 -311 -141q-121 0 -277 52z" />
    <glyph glyph-name="hungarumlaut" unicode="&#x2dd;" horiz-adv-x="646" 
d="M77 1139l97 185q19 34 28 42t11 8q4 0 6 -2.5t2 -4.5q0 -1 -5 -10t-19 -25l-187 -193h67zM362 1139l97 185q19 34 28 42t11 8q4 0 6 -2.5t2 -4.5q0 -1 -5 -10t-19 -25l-187 -193h67z" />
    <glyph glyph-name="endash" unicode="&#x2013;" horiz-adv-x="1026" 
d="M10 479h876h-876z" />
    <glyph glyph-name="emdash" unicode="&#x2014;" horiz-adv-x="2078" 
d="M10 479h1928h-1928z" />
    <glyph glyph-name="quoteleft" unicode="&#x2018;" horiz-adv-x="309" 
d="M10 1388q2 283 151 283v26q-78 0 -138 -228q90 -9 107 -17q18 -11 28.5 -30t10.5 -39q0 -21 -11 -40.5t-29.5 -29.5t-39.5 -10q-20 0 -39 10t-29.5 29t-10.5 41v5z" />
    <glyph glyph-name="quoteright" unicode="&#x2019;" horiz-adv-x="309" 
d="M169 1586q-2 -283 -151 -283v-26q78 0 138 228q-89 9 -107 18q-18 10 -28.5 29t-10.5 39q0 21 11 40.5t29.5 29.5t39.5 10q20 0 39 -10t29.5 -29t10.5 -41v-5z" />
    <glyph glyph-name="quotesinglbase" unicode="&#x201a;" horiz-adv-x="309" 
d="M169 131q-2 -283 -151 -283v-26q78 0 138 228q-89 9 -107 18q-18 10 -28.5 29t-10.5 39q0 21 11 40.5t29.5 29.5t39.5 10q20 0 39 -10t29.5 -29t10.5 -41v-5z" />
    <glyph glyph-name="quotedblleft" unicode="&#x201c;" horiz-adv-x="642" 
d="M343 1388q2 283 151 283v26q-78 0 -138 -228q90 -9 107 -17q18 -11 28.5 -30t10.5 -39q0 -21 -11 -40.5t-29.5 -29.5t-39.5 -10q-20 0 -39 10t-29.5 29t-10.5 41v5zM10 1388q2 283 151 283v26q-78 0 -138 -228q90 -9 107 -17q18 -11 28.5 -30t10.5 -39q0 -21 -11 -40.5
t-29.5 -29.5t-39.5 -10q-20 0 -39 10t-29.5 29t-10.5 41v5z" />
    <glyph glyph-name="quotedblright" unicode="&#x201d;" horiz-adv-x="642" 
d="M169 1586q-2 -283 -151 -283v-26q78 0 138 228q-89 9 -107 18q-18 10 -28.5 29t-10.5 39q0 21 11 40.5t29.5 29.5t39.5 10q20 0 39 -10t29.5 -29t10.5 -41v-5zM502 1586q-2 -283 -151 -283v-26q78 0 138 228q-89 9 -107 18q-18 10 -28.5 29t-10.5 39q0 21 11 40.5
t29.5 29.5t39.5 10q20 0 39 -10t29.5 -29t10.5 -41v-5z" />
    <glyph glyph-name="quotedblbase" unicode="&#x201e;" horiz-adv-x="642" 
d="M169 130q-2 -283 -151 -283v-26q78 0 138 228q-89 9 -107 18q-18 10 -28.5 29t-10.5 39q0 21 11 40.5t29.5 29.5t39.5 10q20 0 39 -10t29.5 -29t10.5 -41v-5zM502 130q-2 -283 -151 -283v-26q78 0 138 228q-89 9 -107 18q-18 10 -28.5 29t-10.5 39q0 21 11 40.5
t29.5 29.5t39.5 10q20 0 39 -10t29.5 -29t10.5 -41v-5z" />
    <glyph glyph-name="bullet" unicode="&#x2022;" horiz-adv-x="622" 
d="M10 718q0 98 69.5 166.5t167.5 68.5q97 0 166 -69t69 -166t-70 -167t-167 -70q-98 0 -166.5 69.5t-68.5 167.5z" />
    <glyph glyph-name="ellipsis" unicode="&#x2026;" horiz-adv-x="1675" 
d="M90 216q20 0 39 -10t29.5 -29t10.5 -41q0 -21 -10 -39.5t-29 -29t-40 -10.5t-40 10.5t-29.5 29.5t-10.5 39q0 21 11 40.5t29.5 29.5t39.5 10zM773 216q20 0 39 -10t29.5 -29t10.5 -41q0 -21 -10 -39.5t-29 -29t-40 -10.5t-40 10.5t-29.5 29.5t-10.5 39q0 21 11 40.5
t29.5 29.5t39.5 10zM1456 216q20 0 39 -10t29.5 -29t10.5 -41q0 -21 -10 -39.5t-29 -29t-40 -10.5t-40 10.5t-29.5 29.5t-10.5 39q0 21 11 40.5t29.5 29.5t39.5 10z" />
    <glyph glyph-name="guilsinglleft" unicode="&#x2039;" horiz-adv-x="440" 
d="M300 236h-69v-43l-221 286l221 286v-43h69l-275 -243z" />
    <glyph glyph-name="guilsinglright" unicode="&#x203a;" horiz-adv-x="440" 
d="M284 479l-274 243h69v43l221 -286l-221 -286v43h-69z" />
    <glyph glyph-name="fraction" unicode="&#x2044;" horiz-adv-x="1070" 
d="M10 31l861 1341h59l-863 -1341h-57z" />
    <glyph glyph-name="fraction" unicode="&#x2215;" horiz-adv-x="1070" 
d="M10 31l861 1341h59l-863 -1341h-57z" />
    <glyph glyph-name="franc" unicode="&#x20a3;" horiz-adv-x="1323" 
d="M1183 1380v-146h-619v-495h373v-146h-373v-533h-146v1320h765zM10 201v146h946v-146h-946z" />
    <glyph glyph-name="lira" unicode="&#x20a4;" horiz-adv-x="940" 
d="M649 1401q-87 37 -187 37h-2q-127 0 -235 -121q-99 -110 -99 -281q0 -17 1 -32q0 -113 49 -271h364v60h-389q46 -114 77 -180h330v60h-363q77 -139 77 -198q0 -141 -223 -435h523q169 0 228 131l-82 2l-50 -113h-619v-31q187 238 187 439q0 92 -45 179l-26 26h-137v-60
h176q-52 115 -79 180h-115v-60h136q-59 177 -59 253q0 201 105.5 304.5t268.5 103.5q71 0 154 -10q19 -3 35 -3q47 0 47 25v-101h57q-3 37 -105 96z" />
    <glyph glyph-name="peseta" unicode="&#x20a7;" horiz-adv-x="2377" 
d="M141.404 1234v-492h320.408q57.6016 0 110.703 32t82.3525 91q29.25 59 29.25 122q0 65 -30.1504 124.5q-30.1514 59.5 -83.252 91q-53.1016 31.5 -108.903 31.5h-320.408zM141.404 596v-536h-131.404v1320h450.912q90.0029 0 173.705 -51t131.854 -145t48.1514 -197
q0 -101 -46.3516 -194q-46.3506 -93 -130.503 -145t-176.855 -52h-319.508zM774 901h-104v146h104v334h146v-334h331v-146h-331v-411q0 -74 38 -141.5t105 -104t138 -36.5t138 36l43 18l102 -102q-9 -10 -72 -44q-103 -56 -211 -56t-210 55t-159.5 158t-57.5 215v413z
M1922 182q46 0 87.5 23.5t64.5 65.5t23 86q0 47 -23.5 88.5t-65.5 64.5t-86 23h-242q-67 0 -129 35t-97 97t-35 129q0 70 36 133t97.5 97t127.5 34h206q66 -1 128 -35q61 -33 97 -96q35 -62 35 -71h-138l-16 1q-18 30 -47 46q-13 7 -27 11q-17 4 -31 4h-206
q-31 0 -60.5 -15.5t-46 -45t-16.5 -62.5q0 -32 16.5 -61.5t46 -45t60.5 -15.5h247q77 0 150 -40q73 -41 116 -116.5t43 -159.5q0 -82 -41.5 -156.5t-116.5 -116.5t-158 -42h-221q-79 0 -153 42q-75 42 -117 116.5t-42 156.5h140q0 -44 23 -86t66 -65q38 -22 82 -24h223z" />
    <glyph glyph-name="Euro" unicode="&#x20ac;" horiz-adv-x="1373" 
d="M289.5 727q1.69922 173 77.3477 333q76.498 160 213.344 247t281.342 87t283.042 -87q69.6982 -45 88.3975 -67l-90.9473 -107q-7.65039 9 -62.8984 44q-105.396 66 -217.594 66q-111.347 0 -217.594 -67t-165.745 -194q-60.3486 -125 -60.3486 -262t60.3486 -261
q59.498 -127 165.745 -194.5t217.594 -67.5q112.197 0 217.594 67q55.248 34 62.8984 43l90.9473 -107q-18.6992 -22 -88.3975 -66q-138.546 -88 -283.042 -88t-281.342 86.5t-213.344 248.5q-75.6484 159 -77.3477 331v15zM10 434v146h946v-146h-946zM10 862v146h946v-146
h-946z" />
    <glyph glyph-name="lessequal" unicode="&#x2264;" horiz-adv-x="922" 
d="M304 612l478 -351l-1 -179l-726 526l6 4l-6 4l726 527l1 -180zM10 60v20h754l-34 34v-54h-720z" />
    <glyph glyph-name="greaterequal" unicode="&#x2265;" horiz-adv-x="904" 
d="M10 963l1 180l726 -527l-6 -4l6 -4l-726 -526l-1 179l478 351zM10 60v20h754l-34 34v-54h-720z" />
    <glyph glyph-name="uniF001" unicode="&#xf001;" horiz-adv-x="0" 
 />
    <glyph glyph-name="uniF001" unicode="&#xfb01;" horiz-adv-x="0" 
 />
    <glyph glyph-name="uniF002" unicode="&#xf002;" horiz-adv-x="0" 
 />
    <glyph glyph-name="uniF002" unicode="&#xfb02;" horiz-adv-x="0" 
 />
    </font>
</defs>
</svg>
